<svg width="477" height="356" viewBox="0 0 477 356" fill="none" xmlns="http://www.w3.org/2000/svg">
<path d="M69.8544 317.259C162.983 365.916 313.992 365.916 407.142 317.259C500.291 268.602 500.281 189.715 407.142 141.058C314.003 92.4011 163.004 92.4011 69.8544 141.058C-23.2952 189.715 -23.2744 268.644 69.8544 317.259Z" fill="#F5F5F5"/>
<path d="M64.5661 235.863C77.778 235.863 88.4885 230.759 88.4885 224.464C88.4885 218.168 77.778 213.065 64.5661 213.065C51.3541 213.065 40.6436 218.168 40.6436 224.464C40.6436 230.759 51.3541 235.863 64.5661 235.863Z" fill="#EBEBEB"/>
<path d="M337.561 251.082C355.194 251.082 369.488 244.268 369.488 235.863C369.488 227.457 355.194 220.643 337.561 220.643C319.927 220.643 305.633 227.457 305.633 235.863C305.633 244.268 319.927 251.082 337.561 251.082Z" fill="#EBEBEB"/>
<path d="M433.011 173.246C433.011 173.246 435.478 165.626 443.504 157.506C447.044 153.925 449.355 151.426 448.616 149.292C447.949 147.408 445.701 146.429 442.484 147.949C437.914 150.115 434.833 154.133 433.011 162.201V173.246Z" fill="#2C3782"/>
<path opacity="0.1" d="M433.011 173.246C433.011 173.246 435.478 165.626 443.504 157.506C447.044 153.925 449.355 151.426 448.616 149.292C447.949 147.408 445.701 146.429 442.484 147.949C437.914 150.115 434.833 154.133 433.011 162.201V173.246Z" fill="black"/>
<path d="M432.501 168.457H432.407C432.307 168.43 432.221 168.365 432.168 168.275C432.116 168.186 432.101 168.079 432.126 167.978C434.989 156.923 442.39 150.073 445.524 148.491C445.618 148.446 445.726 148.44 445.825 148.473C445.923 148.506 446.006 148.576 446.055 148.668C446.098 148.76 446.104 148.867 446.071 148.964C446.038 149.061 445.969 149.141 445.878 149.188C442.848 150.718 435.676 157.381 432.886 168.176C432.861 168.259 432.81 168.331 432.74 168.381C432.671 168.432 432.587 168.459 432.501 168.457Z" fill="white"/>
<path d="M433.011 182.709C433.011 182.709 436.436 175.994 440.569 172.424C444.701 168.853 450.011 165.209 445.513 162.419C441.016 159.629 433.615 165.105 433.021 170.508L433.011 182.709Z" fill="#6576FF"/>
<path d="M432.501 177.931H432.417C432.317 177.906 432.231 177.843 432.177 177.755C432.122 177.668 432.104 177.563 432.126 177.462C434.073 169.134 441.058 164.429 443.379 163.648C443.475 163.628 443.575 163.644 443.659 163.694C443.744 163.743 443.807 163.822 443.836 163.915C443.866 164.008 443.86 164.109 443.82 164.198C443.78 164.287 443.708 164.358 443.619 164.397C441.537 165.105 434.729 169.738 432.886 177.639C432.863 177.723 432.813 177.798 432.743 177.85C432.673 177.903 432.588 177.931 432.501 177.931V177.931Z" fill="white"/>
<path d="M128.557 250.197C128.557 250.197 126.975 246.679 120.364 245.19C113.931 243.743 110.735 245.19 106.394 244.441C102.053 243.691 103.188 235.582 114.868 236.425C125.559 237.195 128.557 245.607 128.557 245.607V250.197Z" fill="#6576FF"/>
<path d="M129.192 248.261C129.116 248.259 129.043 248.236 128.98 248.193C128.917 248.151 128.868 248.091 128.838 248.022C127.797 245.534 123.945 241.474 118.522 240.235C111.786 238.705 108.205 240.235 108.174 240.235C108.081 240.266 107.979 240.262 107.889 240.223C107.799 240.183 107.727 240.112 107.687 240.022C107.646 239.933 107.641 239.831 107.671 239.738C107.702 239.644 107.766 239.565 107.851 239.517C108.007 239.454 111.713 237.841 118.688 239.433C124.716 240.807 128.557 245.221 129.556 247.689C129.577 247.736 129.588 247.786 129.588 247.838C129.589 247.889 129.579 247.94 129.56 247.987C129.54 248.035 129.511 248.078 129.475 248.114C129.439 248.151 129.396 248.179 129.348 248.199L129.192 248.261Z" fill="white"/>
<path d="M128.557 246.19C127.239 243.83 125.552 241.697 123.56 239.871C117.314 233.812 108.986 231.907 104.822 228.596C100.242 225.026 105.79 220.903 111.682 221.164C115.055 221.32 118.615 223.548 120.572 225.151C127.464 230.783 128.599 239.871 128.599 239.871L128.557 246.19Z" fill="#9CABFF"/>
<path opacity="0.5" d="M128.557 246.19C127.239 243.83 125.552 241.697 123.56 239.871C117.314 233.812 108.986 231.907 104.822 228.596C100.242 225.026 105.79 220.903 111.682 221.164C115.055 221.32 118.615 223.548 120.572 225.151C127.464 230.783 128.599 239.871 128.599 239.871L128.557 246.19Z" fill="white"/>
<path d="M129.192 245.575C129.099 245.574 129.009 245.54 128.939 245.479C128.868 245.418 128.822 245.334 128.807 245.242C127.987 240.866 126.001 236.791 123.06 233.448C118.147 227.857 109.746 224.859 109.652 224.828C109.557 224.793 109.479 224.722 109.435 224.631C109.39 224.54 109.382 224.435 109.413 224.339C109.429 224.29 109.455 224.244 109.489 224.206C109.524 224.167 109.565 224.135 109.612 224.113C109.658 224.091 109.709 224.078 109.761 224.076C109.812 224.073 109.864 224.081 109.912 224.099C110.266 224.214 118.595 227.222 123.643 232.927C126.705 236.376 128.761 240.6 129.588 245.138C129.595 245.19 129.592 245.242 129.578 245.292C129.565 245.342 129.541 245.389 129.509 245.43C129.477 245.471 129.437 245.505 129.391 245.53C129.346 245.555 129.296 245.57 129.244 245.575H129.192Z" fill="white"/>
<path d="M271.425 310.888C271.425 310.888 273.195 307.453 279.878 306.318C286.374 305.215 289.487 306.787 293.869 306.318C298.252 305.85 297.544 297.636 285.833 297.855C275.121 298.053 271.675 306.287 271.675 306.287L271.425 310.888Z" fill="#6576FF"/>
<path opacity="0.1" d="M271.425 310.888C271.425 310.888 273.195 307.453 279.878 306.318C286.374 305.215 289.487 306.787 293.869 306.318C298.252 305.85 297.544 297.636 285.833 297.855C275.121 298.053 271.675 306.287 271.675 306.287L271.425 310.888Z" fill="black"/>
<path d="M270.915 309.243C270.834 309.24 270.755 309.215 270.686 309.171C270.644 309.142 270.608 309.104 270.581 309.061C270.553 309.018 270.535 308.97 270.526 308.92C270.517 308.869 270.518 308.818 270.53 308.768C270.541 308.718 270.563 308.671 270.592 308.629C273.08 305.069 277.609 302.383 282.72 301.488C289.289 300.312 293.13 302.394 293.297 302.529C293.341 302.554 293.38 302.587 293.412 302.626C293.444 302.666 293.467 302.712 293.481 302.761C293.495 302.809 293.499 302.86 293.494 302.911C293.488 302.961 293.472 303.01 293.448 303.055C293.423 303.099 293.39 303.138 293.35 303.17C293.311 303.202 293.265 303.225 293.216 303.239C293.167 303.253 293.116 303.257 293.066 303.252C293.015 303.246 292.967 303.23 292.922 303.206C292.922 303.206 289.143 301.176 282.856 302.3C277.952 303.174 273.601 305.725 271.238 309.119C271.196 309.161 271.146 309.195 271.09 309.216C271.034 309.238 270.975 309.247 270.915 309.243V309.243Z" fill="white"/>
<path d="M271.894 306.068C273.405 304.167 275.123 302.439 277.015 300.915C283.605 295.211 291.944 294.284 296.357 291.203C301.125 287.882 295.806 283.468 289.903 283.416C286.53 283.416 282.856 285.425 280.805 286.924C276.435 290.198 273.166 294.727 271.436 299.906L271.894 306.068Z" fill="#9CABFF"/>
<path opacity="0.5" d="M271.894 306.068C273.405 304.167 275.123 302.439 277.015 300.915C283.605 295.211 291.944 294.284 296.357 291.203C301.125 287.882 295.806 283.468 289.903 283.416C286.53 283.416 282.856 285.425 280.805 286.924C276.435 290.198 273.166 294.727 271.436 299.906L271.894 306.068Z" fill="white"/>
<path d="M270.915 305.985H270.769C270.674 305.95 270.595 305.88 270.549 305.789C270.503 305.699 270.492 305.594 270.52 305.496C272.147 301.027 274.717 296.962 278.056 293.576C281.679 289.841 286.384 287.339 291.506 286.425C291.556 286.417 291.607 286.42 291.656 286.433C291.705 286.446 291.751 286.469 291.791 286.5C291.831 286.531 291.864 286.57 291.888 286.614C291.913 286.659 291.928 286.707 291.933 286.758C291.94 286.809 291.937 286.861 291.924 286.912C291.91 286.962 291.887 287.009 291.855 287.05C291.823 287.09 291.782 287.124 291.737 287.149C291.691 287.174 291.641 287.19 291.59 287.195C286.658 288.131 282.129 290.55 278.608 294.128C275.374 297.421 272.888 301.373 271.321 305.714C271.293 305.798 271.238 305.871 271.165 305.92C271.091 305.969 271.003 305.992 270.915 305.985V305.985Z" fill="white"/>
<path d="M170.832 251.072V172.424H128.557V251.082C128.557 254.205 130.639 257.328 134.803 259.702C143.058 264.47 156.446 264.47 164.701 259.702C168.865 257.318 170.884 254.205 170.895 251.082L170.832 251.072Z" fill="#37474F"/>
<path d="M134.751 181.584C126.485 176.817 126.485 169.092 134.751 164.314C143.017 159.536 156.394 159.546 164.649 164.314C172.904 169.082 172.904 176.806 164.649 181.584C156.394 186.363 143.006 186.342 134.751 181.584Z" fill="#455A64"/>
<path d="M221.582 280.376V223.121H179.296V280.376C179.296 283.499 181.378 286.622 185.542 288.996C193.797 293.764 207.184 293.764 215.44 288.996C219.604 286.622 221.634 283.499 221.634 280.376H221.582Z" fill="#37474F"/>
<path d="M185.49 232.292C177.235 227.524 177.235 219.8 185.49 215.022C193.745 210.243 207.132 210.254 215.388 215.022C223.643 219.789 223.653 227.514 215.388 232.292C207.122 237.07 193.735 237.101 185.49 232.292Z" fill="#455A64"/>
<path d="M272.331 309.67V265.209H230.045V309.681C230.045 312.804 232.127 315.927 236.291 318.311C244.546 323.079 257.934 323.079 266.189 318.311C270.353 315.927 272.373 312.804 272.383 309.681L272.331 309.67Z" fill="#37474F"/>
<path d="M251.188 277.93C262.865 277.93 272.331 272.463 272.331 265.719C272.331 258.975 262.865 253.508 251.188 253.508C239.511 253.508 230.045 258.975 230.045 265.719C230.045 272.463 239.511 277.93 251.188 277.93Z" fill="#455A64"/>
<path d="M125.85 278.804L115.867 273.048L121.395 265.885C122.103 264.969 121.77 264.47 120.656 264.751L107.414 268.165L97.4308 262.398C96.5921 261.972 95.6648 261.75 94.7241 261.75C93.7835 261.75 92.8561 261.972 92.0175 262.398L76.2878 271.455C74.7888 272.319 74.7888 273.714 76.2878 274.578L104.707 290.984C105.546 291.41 106.473 291.632 107.414 291.632C108.355 291.632 109.282 291.41 110.121 290.984L125.85 281.896C127.339 281.063 127.339 279.668 125.85 278.804Z" fill="#6576FF"/>
<path d="M109.881 275.275C110.044 275.259 110.208 275.259 110.371 275.275C110.532 275.296 110.688 275.349 110.829 275.431L112.255 276.254C112.351 276.301 112.426 276.383 112.463 276.483C112.463 276.566 112.463 276.639 112.317 276.691C112.283 276.7 112.247 276.7 112.213 276.691C112.162 276.703 112.108 276.703 112.057 276.691L92.2778 278.253H91.7156C91.5534 278.228 91.3976 278.172 91.2576 278.086L89.8314 277.264C89.7352 277.217 89.6606 277.135 89.6232 277.035C89.6232 276.951 89.6232 276.878 89.7689 276.826C89.803 276.817 89.839 276.817 89.873 276.826H90.0292L109.881 275.275ZM103.51 273.953C103.087 274.236 102.645 274.49 102.188 274.713C101.819 274.901 101.432 275.051 101.033 275.161C100.614 275.267 100.184 275.319 99.7522 275.317C98.7886 275.319 97.8425 275.06 97.0144 274.567C96.6192 274.374 96.2656 274.105 95.9734 273.776C95.7836 273.56 95.6767 273.283 95.6715 272.996C95.6753 272.724 95.7748 272.462 95.9525 272.256C96.1597 271.988 96.4136 271.758 96.7021 271.58C96.8995 271.437 97.1046 271.305 97.3163 271.184C97.5141 271.07 97.7535 270.945 98.0137 270.82C98.3885 270.631 98.783 270.484 99.1901 270.383C100.055 270.167 100.959 270.167 101.824 270.383C102.305 270.513 102.767 270.705 103.198 270.955C103.574 271.151 103.906 271.42 104.177 271.746C104.368 271.962 104.479 272.238 104.489 272.527C104.475 272.797 104.377 273.056 104.208 273.266C104.017 273.534 103.781 273.767 103.51 273.953V273.953ZM105.478 282.094C105.075 282.395 104.65 282.666 104.208 282.906C103.836 283.093 103.445 283.239 103.042 283.343C102.625 283.458 102.194 283.514 101.761 283.51C101.301 283.508 100.842 283.445 100.398 283.322C99.9156 283.2 99.453 283.011 99.0235 282.76C98.6521 282.558 98.3205 282.29 98.045 281.969C97.853 281.75 97.7458 281.469 97.7431 281.178C97.7513 280.909 97.8462 280.65 98.0137 280.439C98.2257 280.174 98.483 279.948 98.7737 279.772C98.967 279.624 99.1725 279.491 99.3879 279.377C99.6123 279.241 99.8453 279.119 100.085 279.013C100.457 278.824 100.848 278.677 101.251 278.575C101.671 278.473 102.1 278.417 102.532 278.409C103.492 278.408 104.434 278.667 105.259 279.158C105.656 279.349 106.01 279.618 106.3 279.949C106.484 280.16 106.585 280.43 106.585 280.709C106.585 280.989 106.484 281.259 106.3 281.469C106.063 281.723 105.785 281.934 105.478 282.094ZM98.8466 272.725C98.6396 272.842 98.4699 273.015 98.3573 273.225C98.3573 273.37 98.3573 273.516 98.6592 273.662C98.8841 273.798 99.1465 273.86 99.4087 273.839C99.7111 273.791 100.003 273.692 100.273 273.547C100.667 273.358 101.047 273.139 101.407 272.891C101.619 272.777 101.793 272.604 101.907 272.392C101.907 272.246 101.855 272.1 101.605 271.955C101.377 271.817 101.11 271.758 100.845 271.788C100.546 271.83 100.257 271.925 99.9917 272.069C99.594 272.242 99.2111 272.448 98.8466 272.683V272.725ZM100.824 280.866C100.613 280.98 100.439 281.153 100.325 281.365C100.325 281.501 100.325 281.646 100.627 281.792C100.852 281.937 101.12 282 101.387 281.969C101.684 281.922 101.973 281.827 102.24 281.688C102.639 281.501 103.022 281.282 103.385 281.032C103.595 280.918 103.765 280.744 103.875 280.532C103.875 280.387 103.875 280.241 103.573 280.095C103.348 279.959 103.085 279.897 102.823 279.918C102.524 279.965 102.235 280.063 101.97 280.21C101.572 280.383 101.189 280.589 100.824 280.824V280.866Z" fill="white"/>
<path d="M180.837 310.534L170.832 304.767L176.36 297.615C177.058 296.699 176.725 296.189 175.611 296.481L162.369 299.885L152.386 294.128C151.549 293.702 150.623 293.48 149.684 293.48C148.745 293.48 147.82 293.702 146.983 294.128L131.274 303.206C129.785 304.07 129.785 305.475 131.274 306.329L159.694 322.745C160.534 323.167 161.46 323.386 162.4 323.386C163.34 323.386 164.267 323.167 165.107 322.745L180.837 313.657C182.336 312.793 182.336 311.398 180.837 310.534Z" fill="#6576FF"/>
<path d="M164.867 307.005H165.367C165.529 307.031 165.684 307.088 165.825 307.172L167.241 307.994C167.366 308.067 167.439 308.14 167.449 308.223C167.46 308.307 167.449 308.369 167.314 308.432C167.28 308.439 167.244 308.439 167.21 308.432H167.054L147.274 309.993C147.108 310.009 146.941 310.009 146.775 309.993C146.612 309.97 146.456 309.913 146.317 309.826L144.901 309.014C144.776 308.942 144.703 308.858 144.693 308.785C144.689 308.739 144.7 308.693 144.725 308.654C144.749 308.615 144.785 308.584 144.828 308.567H144.932H145.088L164.867 307.005ZM158.496 305.683C158.078 305.968 157.64 306.222 157.185 306.443C156.813 306.63 156.422 306.777 156.019 306.88C155.602 306.995 155.171 307.051 154.738 307.047C154.278 307.045 153.819 306.982 153.375 306.86C152.893 306.737 152.43 306.548 152.001 306.297C151.626 306.095 151.291 305.827 151.012 305.506C150.823 305.296 150.718 305.024 150.718 304.741C150.718 304.459 150.823 304.186 151.012 303.976C151.222 303.713 151.476 303.488 151.761 303.31C151.958 303.166 152.163 303.034 152.375 302.914C152.605 302.78 152.841 302.658 153.083 302.55C153.454 302.361 153.845 302.215 154.249 302.113C154.923 301.941 155.623 301.904 156.311 302.004C156.999 302.104 157.66 302.339 158.257 302.696C158.634 302.895 158.969 303.163 159.246 303.487C159.437 303.702 159.544 303.979 159.548 304.267C159.54 304.538 159.441 304.799 159.267 305.007C159.053 305.277 158.792 305.507 158.496 305.683ZM160.474 313.824C160.052 314.107 159.61 314.361 159.152 314.584C158.785 314.773 158.397 314.919 157.997 315.021C157.578 315.127 157.148 315.179 156.716 315.177C155.753 315.18 154.807 314.92 153.978 314.428C153.603 314.232 153.267 313.967 152.99 313.647C152.797 313.428 152.69 313.147 152.688 312.856C152.7 312.586 152.798 312.327 152.969 312.117C153.179 311.851 153.432 311.622 153.718 311.44C153.926 311.294 154.135 311.169 154.332 311.044C154.53 310.92 154.77 310.805 155.03 310.68C155.405 310.491 155.799 310.345 156.206 310.243C156.627 310.147 157.056 310.095 157.487 310.087C157.944 310.085 158.399 310.145 158.84 310.264C159.323 310.388 159.786 310.581 160.214 310.836C160.591 311.035 160.926 311.304 161.203 311.627C161.391 311.836 161.495 312.107 161.495 312.387C161.495 312.668 161.391 312.939 161.203 313.147C160.999 313.412 160.753 313.64 160.474 313.824V313.824ZM153.843 304.455C153.631 304.569 153.457 304.743 153.343 304.955C153.343 305.09 153.396 305.236 153.645 305.381C153.87 305.527 154.139 305.589 154.405 305.558C154.703 305.51 154.991 305.415 155.259 305.277C155.66 305.091 156.044 304.868 156.404 304.611C156.612 304.5 156.782 304.33 156.893 304.122C156.893 303.976 156.841 303.83 156.591 303.685C156.368 303.543 156.104 303.481 155.842 303.508C155.539 303.554 155.247 303.652 154.978 303.799C154.583 303.972 154.204 304.178 153.843 304.413V304.455ZM155.811 312.596C155.607 312.712 155.438 312.881 155.321 313.085C155.321 313.231 155.373 313.376 155.623 313.522C155.846 313.663 156.11 313.726 156.373 313.699C156.674 313.652 156.966 313.557 157.237 313.418C157.631 313.224 158.01 313.001 158.372 312.752C158.58 312.638 158.753 312.468 158.871 312.262C158.923 312.117 158.871 311.971 158.569 311.825C158.342 311.684 158.075 311.622 157.809 311.648C157.512 311.697 157.224 311.792 156.956 311.929C156.561 312.112 156.178 312.321 155.811 312.554V312.596Z" fill="white"/>
<path d="M235.781 342.244L225.798 336.487L231.336 329.314C232.033 328.409 231.7 327.898 230.586 328.19L217.345 331.594L207.361 325.837C206.523 325.411 205.595 325.189 204.655 325.189C203.714 325.189 202.787 325.411 201.948 325.837L186.219 334.956C184.73 335.821 184.73 337.226 186.219 338.08L214.638 354.496C215.478 354.917 216.405 355.137 217.345 355.137C218.285 355.137 219.211 354.917 220.051 354.496L235.781 345.367C237.28 344.534 237.28 343.139 235.781 342.244Z" fill="#6576FF"/>
<path d="M219.812 338.746H220.301C220.463 338.77 220.619 338.827 220.759 338.912L222.185 339.735C222.31 339.808 222.383 339.88 222.394 339.964C222.404 340.047 222.394 340.109 222.258 340.172H222.154H221.998L202.219 341.733C202.056 341.749 201.892 341.749 201.73 341.733C201.567 341.712 201.41 341.655 201.272 341.567L199.856 340.755C199.731 340.682 199.658 340.599 199.648 340.526C199.644 340.48 199.655 340.434 199.68 340.395C199.704 340.355 199.74 340.325 199.783 340.307H199.887C199.938 340.295 199.992 340.295 200.043 340.307L219.812 338.746ZM213.441 337.424C213.021 337.711 212.579 337.965 212.119 338.184C211.751 338.372 211.364 338.519 210.963 338.621C210.546 338.735 210.115 338.791 209.683 338.787C209.219 338.785 208.757 338.722 208.309 338.6C207.83 338.478 207.371 338.289 206.945 338.038C206.571 337.835 206.236 337.567 205.956 337.247C205.764 337.028 205.657 336.747 205.654 336.456C205.666 336.185 205.765 335.926 205.935 335.716C206.148 335.453 206.401 335.225 206.685 335.04C206.893 334.894 207.101 334.769 207.299 334.655C207.497 334.54 207.736 334.415 207.996 334.28C208.762 333.905 209.601 333.702 210.453 333.686C211.413 333.69 212.354 333.948 213.181 334.436C213.557 334.635 213.893 334.904 214.17 335.227C214.358 335.444 214.465 335.72 214.472 336.008C214.458 336.278 214.36 336.536 214.19 336.747C213.983 337.016 213.729 337.245 213.441 337.424V337.424ZM215.408 345.564C214.988 345.845 214.55 346.099 214.097 346.324C213.728 346.511 213.341 346.658 212.941 346.762C212.07 346.983 211.158 346.983 210.287 346.762C209.808 346.635 209.348 346.443 208.923 346.189C208.526 345.999 208.172 345.729 207.882 345.398C207.689 345.183 207.582 344.906 207.58 344.617C207.586 344.348 207.681 344.088 207.851 343.878C208.067 343.614 208.324 343.386 208.611 343.201C208.808 343.058 209.013 342.926 209.225 342.806C209.423 342.691 209.662 342.566 209.922 342.441C210.682 342.05 211.525 341.847 212.379 341.848C212.836 341.847 213.291 341.906 213.732 342.025C214.212 342.151 214.671 342.344 215.096 342.597C215.493 342.788 215.847 343.057 216.137 343.389C216.33 343.603 216.438 343.881 216.439 344.169C216.433 344.439 216.338 344.699 216.168 344.909C215.955 345.17 215.698 345.392 215.408 345.564V345.564ZM208.777 336.195C208.57 336.312 208.401 336.486 208.288 336.695C208.288 336.83 208.34 336.976 208.59 337.122C208.813 337.262 209.077 337.324 209.339 337.299C209.641 337.252 209.932 337.157 210.203 337.018C210.604 336.829 210.987 336.606 211.349 336.351C211.557 336.241 211.727 336.07 211.838 335.862C211.89 335.716 211.838 335.571 211.536 335.425C211.309 335.284 211.042 335.222 210.776 335.248C210.477 335.296 210.188 335.395 209.922 335.539C209.526 335.715 209.143 335.92 208.777 336.154V336.195ZM210.755 344.336C210.549 344.453 210.377 344.622 210.255 344.825C210.255 344.971 210.255 345.117 210.568 345.262C210.791 345.404 211.055 345.466 211.317 345.439C211.615 345.392 211.903 345.297 212.171 345.158C212.568 344.964 212.951 344.741 213.316 344.492C213.524 344.378 213.697 344.209 213.816 344.003C213.871 343.857 213.767 343.711 213.503 343.566C213.28 343.424 213.016 343.362 212.754 343.389C212.456 343.436 212.168 343.531 211.9 343.67C211.503 343.861 211.121 344.08 210.755 344.326V344.336Z" fill="white"/>
<path d="M378.045 170.508L361.129 160.743V111.91L378.045 121.674V170.508Z" fill="#37474F"/>
<path d="M378.045 170.508L394.962 160.743V111.91L378.045 121.674V170.508Z" fill="#455A64"/>
<path d="M361.129 111.91L378.045 121.674L394.962 111.91L378.045 102.145L361.129 111.91Z" fill="#455A64"/>
<path d="M339.986 148.532L323.07 138.768V41.1105L339.986 50.8752V148.532Z" fill="#37474F"/>
<path d="M339.986 148.532L356.903 138.768V41.1105L339.986 50.8752V148.532Z" fill="#455A64"/>
<path d="M323.07 41.1105L339.986 50.8752L356.903 41.1105L339.986 31.3458L323.07 41.1105Z" fill="#455A64"/>
<path d="M301.927 126.557L285.01 116.792V82.6156L301.927 92.3802V126.557Z" fill="#37474F"/>
<path d="M301.927 126.557L318.843 116.792V82.6156L301.927 92.3802V126.557Z" fill="#455A64"/>
<path d="M285.01 82.6156L301.927 92.3802L318.843 82.6156L301.927 72.8509L285.01 82.6156Z" fill="#455A64"/>
<path d="M416.105 192.484L399.188 182.709V89.9443L416.094 99.709L416.105 192.484Z" fill="#37474F"/>
<path d="M416.094 192.484L433.011 182.709V89.9443L416.094 99.709V192.484Z" fill="#455A64"/>
<path d="M399.188 89.9443L416.094 99.709L433.011 89.9443L416.105 80.1692L399.188 89.9443Z" fill="#455A64"/>
<g opacity="0.3">
<path opacity="0.3" d="M297.836 185.394L297.659 77.2544C297.622 76.6284 297.439 76.0197 297.125 75.4773C296.81 74.9349 296.372 74.4739 295.847 74.1313L168.261 0.792154C167.22 0.219598 166.46 0.688053 166.46 1.83316L166.668 109.932C166.702 110.558 166.884 111.168 167.199 111.711C167.514 112.253 167.953 112.714 168.48 113.055L296.076 186.446C297.044 187.018 297.836 186.55 297.836 185.394Z" fill="white"/>
</g>
<path d="M296.857 187.206C296.489 187.192 296.131 187.084 295.816 186.894L168.219 113.502C167.61 113.119 167.103 112.594 166.741 111.972C166.378 111.351 166.171 110.651 166.137 109.932L165.94 1.83317C165.896 1.51615 165.948 1.19333 166.088 0.905764C166.229 0.618195 166.451 0.37886 166.728 0.218177C167.005 0.0574936 167.323 -0.0172823 167.642 0.00336195C167.962 0.0240062 168.268 0.139133 168.521 0.33411L296.118 73.6629C296.726 74.0476 297.232 74.5727 297.595 75.1942C297.957 75.8156 298.165 76.515 298.2 77.2335L298.377 185.374C298.402 185.689 298.343 186.006 298.206 186.291C298.069 186.576 297.858 186.82 297.596 186.998C297.373 187.132 297.118 187.204 296.857 187.206V187.206ZM167.46 1.02118C167.391 1.00308 167.32 1.00308 167.251 1.02118C167.15 1.10871 167.072 1.22033 167.024 1.34582C166.977 1.47131 166.962 1.60667 166.981 1.73948L167.158 109.88C167.187 110.427 167.347 110.959 167.624 111.431C167.901 111.904 168.287 112.304 168.75 112.597L296.347 185.988C296.659 186.165 296.93 186.217 297.097 186.113C297.263 186.009 297.367 185.759 297.367 185.394L297.19 77.2544C297.157 76.7213 297 76.2032 296.733 75.7409C296.466 75.2785 296.095 74.8843 295.65 74.5894L168.001 1.19815C167.838 1.0941 167.652 1.03319 167.46 1.02118Z" fill="#6576FF"/>
<path d="M285.718 161.535C282.335 159.13 280.357 156.954 279.014 140.235L278.9 138.809C277.64 123.1 276.818 112.732 269.655 108.453C266.22 106.371 263.472 108.453 260.567 110.712C257.934 112.722 255.227 114.783 252.177 113.044C246.816 109.921 245.931 103.738 244.265 92.4531C244.057 91.0581 243.849 89.5903 243.609 88.0496C243.245 85.6449 242.933 83.4067 242.641 81.3039C240.996 69.4572 239.997 62.295 233.938 58.6411C233.342 58.2183 232.655 57.9406 231.932 57.8304C231.209 57.7201 230.47 57.7803 229.774 58.0061C225.184 59.6092 221.592 69.3218 217.792 79.6174C217.501 80.3774 217.22 81.179 216.918 81.9805C214.159 89.5695 211.036 98.1787 206.716 99.7714C206.105 99.995 205.452 100.077 204.804 100.013C204.157 99.9477 203.533 99.7371 202.979 99.3966C198.679 96.9607 197.909 90.2982 197.17 83.8439C196.431 77.3897 195.713 70.9042 191.653 68.4578C191.308 68.2352 190.915 68.1007 190.506 68.0663C190.098 68.0318 189.687 68.0983 189.31 68.26C184.272 70.2171 179.806 85.1244 179.764 85.2701L178.723 84.9786C178.911 84.3436 183.377 69.4364 188.884 67.2815C189.409 67.0637 189.98 66.9755 190.547 67.0244C191.114 67.0733 191.661 67.2579 192.142 67.5625C196.629 70.2483 197.409 77.0878 198.169 83.6982C198.929 90.3086 199.616 96.2944 203.468 98.4701C203.888 98.737 204.364 98.903 204.859 98.9554C205.354 99.0078 205.854 98.945 206.32 98.772C210.183 97.3458 213.358 88.6222 215.908 81.6058C216.21 80.7938 216.491 80.0026 216.783 79.2323C220.843 68.2496 224.351 58.766 229.4 56.9963C230.236 56.725 231.125 56.6506 231.995 56.7788C232.865 56.907 233.694 57.2343 234.417 57.7354C240.892 61.6496 241.923 68.9887 243.609 81.1477C243.901 83.2297 244.213 85.4783 244.578 87.8726C244.817 89.4238 245.025 90.8916 245.233 92.2761C246.826 103.248 247.711 109.286 252.635 112.118C255.081 113.523 257.299 111.826 259.87 109.869C262.785 107.641 266.116 105.133 270.124 107.537C277.734 112.097 278.587 122.684 279.868 138.705L279.982 140.131C281.356 157.183 283.418 158.641 286.228 160.671L285.718 161.535Z" fill="#6576FF"/>
<g opacity="0.4">
<path opacity="0.4" d="M285.718 161.535C282.335 159.13 280.357 156.954 279.014 140.235L278.9 138.809C277.64 123.1 276.818 112.732 269.655 108.453C266.22 106.371 263.472 108.453 260.567 110.712C257.934 112.722 255.227 114.783 252.177 113.044C246.816 109.921 245.931 103.738 244.265 92.4531C244.057 91.0581 243.849 89.5903 243.609 88.0496C243.245 85.6449 242.933 83.4067 242.641 81.3039C240.996 69.4572 239.997 62.295 233.938 58.6411C233.342 58.2183 232.655 57.9406 231.932 57.8304C231.209 57.7201 230.47 57.7803 229.774 58.0061C225.184 59.6092 221.592 69.3218 217.792 79.6174C217.501 80.3774 217.22 81.179 216.918 81.9805C214.159 89.5695 211.036 98.1787 206.716 99.7714C206.105 99.995 205.452 100.077 204.804 100.013C204.157 99.9477 203.533 99.7371 202.979 99.3966C198.679 96.9607 197.909 90.2982 197.17 83.8439C196.431 77.3897 195.713 70.9042 191.653 68.4578C191.308 68.2352 190.915 68.1007 190.506 68.0663C190.098 68.0318 189.687 68.0983 189.31 68.26C184.272 70.2171 179.806 85.1244 179.764 85.2701L178.723 84.9786C178.911 84.3436 183.377 69.4364 188.884 67.2815C189.409 67.0637 189.98 66.9755 190.547 67.0244C191.114 67.0733 191.661 67.2579 192.142 67.5625C196.629 70.2483 197.409 77.0878 198.169 83.6982C198.929 90.3086 199.616 96.2944 203.468 98.4701C203.888 98.737 204.364 98.903 204.859 98.9554C205.354 99.0078 205.854 98.945 206.32 98.772C210.183 97.3458 213.358 88.6222 215.908 81.6058C216.21 80.7938 216.491 80.0026 216.783 79.2323C220.843 68.2496 224.351 58.766 229.4 56.9963C230.236 56.725 231.125 56.6506 231.995 56.7788C232.865 56.907 233.694 57.2343 234.417 57.7354C240.892 61.6496 241.923 68.9887 243.609 81.1477C243.901 83.2297 244.213 85.4783 244.578 87.8726C244.817 89.4238 245.025 90.8916 245.233 92.2761C246.826 103.248 247.711 109.286 252.635 112.118C255.081 113.523 257.299 111.826 259.87 109.869C262.785 107.641 266.116 105.133 270.124 107.537C277.734 112.097 278.587 122.684 279.868 138.705L279.982 140.131C281.356 157.183 283.418 158.641 286.228 160.671L285.718 161.535Z" fill="black"/>
</g>
<path d="M268.115 103.852C268.889 104.359 269.534 105.041 269.999 105.841C270.463 106.642 270.734 107.54 270.79 108.464C270.79 110.161 269.593 110.848 268.125 110.005C267.348 109.501 266.7 108.821 266.235 108.019C265.77 107.218 265.501 106.318 265.45 105.393C265.45 103.738 266.605 103.051 268.115 103.852Z" fill="#2C3782"/>
<g opacity="0.2">
<path opacity="0.2" d="M268.115 103.852C268.889 104.359 269.534 105.041 269.999 105.841C270.463 106.642 270.734 107.54 270.79 108.464C270.79 110.161 269.593 110.848 268.125 110.005C267.348 109.501 266.7 108.821 266.235 108.019C265.77 107.218 265.501 106.318 265.45 105.393C265.45 103.738 266.605 103.051 268.115 103.852Z" fill="black"/>
</g>
<path d="M234.209 55.1225C234.984 55.6279 235.629 56.3088 236.092 57.11C236.555 57.9112 236.823 58.8102 236.874 59.7342C236.874 61.431 235.687 62.1181 234.22 61.2749C233.441 60.7718 232.793 60.0917 232.328 59.2902C231.863 58.4887 231.595 57.5885 231.544 56.6632C231.544 54.9247 232.731 54.2793 234.209 55.1225Z" fill="#6576FF"/>
<g opacity="0.5">
<path opacity="0.5" d="M234.209 55.1225C234.984 55.6279 235.629 56.3088 236.092 57.11C236.555 57.9112 236.823 58.8102 236.874 59.7342C236.874 61.431 235.687 62.1181 234.22 61.2749C233.441 60.7718 232.793 60.0917 232.328 59.2902C231.863 58.4887 231.595 57.5885 231.544 56.6632C231.544 54.9247 232.731 54.2793 234.209 55.1225Z" fill="white"/>
</g>
<path d="M191.934 64.96C192.712 65.4608 193.36 66.1389 193.825 66.9388C194.29 67.7386 194.559 68.6374 194.609 69.5613C194.609 71.2685 193.422 71.9556 191.944 71.1124C191.17 70.6064 190.525 69.9253 190.062 69.1242C189.599 68.3232 189.331 67.4245 189.279 66.5007C189.269 64.8039 190.466 64.1064 191.934 64.96Z" fill="#9CABFF"/>
<path opacity="0.65" d="M230.035 180.627V72.4866C230 71.8613 229.819 71.253 229.506 70.7105C229.193 70.168 228.758 69.7067 228.234 69.3635L117.668 5.52879C116.627 4.95623 115.867 5.42469 115.867 6.5698V114.71C115.901 115.335 116.081 115.944 116.394 116.487C116.707 117.029 117.144 117.49 117.668 117.833L228.234 181.668C229.233 182.251 230.035 181.782 230.035 180.627Z" fill="white"/>
<path d="M229.046 182.438C228.678 182.424 228.32 182.316 228.005 182.126L117.408 118.291C116.8 117.903 116.294 117.376 115.932 116.753C115.57 116.13 115.362 115.43 115.326 114.71V6.56977C115.285 6.25359 115.338 5.93232 115.479 5.64652C115.621 5.36072 115.844 5.1232 116.12 4.96393C116.396 4.80466 116.713 4.7308 117.031 4.75166C117.35 4.77251 117.654 4.88716 117.907 5.08113L228.473 68.9159C229.08 69.3012 229.586 69.8266 229.949 70.4478C230.311 71.0691 230.519 71.7682 230.555 72.4865V180.627C230.58 180.942 230.521 181.259 230.384 181.544C230.247 181.829 230.036 182.073 229.774 182.251C229.552 182.376 229.301 182.44 229.046 182.438V182.438ZM116.866 5.80983C116.798 5.7922 116.727 5.7922 116.658 5.80983C116.557 5.89736 116.479 6.00898 116.431 6.13447C116.384 6.25996 116.369 6.39532 116.388 6.52813V114.71C116.42 115.245 116.576 115.764 116.844 116.229C117.111 116.693 117.482 117.089 117.928 117.385L228.494 181.22C228.6 181.303 228.725 181.358 228.858 181.38C228.991 181.402 229.127 181.39 229.254 181.345C229.42 181.251 229.514 180.991 229.514 180.627V72.4865C229.482 71.9531 229.326 71.4344 229.059 70.9718C228.792 70.5092 228.42 70.1153 227.973 69.8216L117.408 5.99721C117.248 5.88536 117.061 5.82044 116.866 5.80983Z" fill="#6576FF"/>
<path d="M211.015 156.048V84.885C210.998 84.5719 210.906 84.2674 210.749 83.9962C210.592 83.7249 210.373 83.4944 210.11 83.3235L199.231 77.0774C198.731 76.7859 198.325 77.0149 198.325 77.5979V148.72C198.341 149.033 198.431 149.339 198.589 149.61C198.746 149.882 198.967 150.112 199.231 150.281L210.11 156.527C210.609 156.86 211.015 156.621 211.015 156.048Z" fill="#2C3782"/>
<g opacity="0.3">
<path opacity="0.3" d="M211.015 156.048V84.885C210.998 84.5719 210.906 84.2674 210.749 83.9962C210.592 83.7249 210.373 83.4944 210.11 83.3235L199.231 77.0774C198.731 76.7859 198.325 77.0149 198.325 77.5979V148.72C198.341 149.033 198.431 149.339 198.589 149.61C198.746 149.882 198.967 150.112 199.231 150.281L210.11 156.527C210.609 156.86 211.015 156.621 211.015 156.048Z" fill="black"/>
</g>
<path d="M189.872 143.837V106.861C189.855 106.548 189.763 106.243 189.606 105.972C189.449 105.701 189.23 105.47 188.967 105.299L178.078 99.0531C177.589 98.7721 177.183 99.0531 177.183 99.5736V136.561C177.201 136.873 177.291 137.176 177.447 137.447C177.602 137.718 177.818 137.949 178.078 138.122L188.967 144.368C189.466 144.649 189.872 144.452 189.872 143.837Z" fill="#6576FF"/>
<g opacity="0.2">
<path opacity="0.2" d="M189.872 143.837V106.861C189.855 106.548 189.763 106.243 189.606 105.972C189.449 105.701 189.23 105.47 188.967 105.299L178.078 99.0531C177.589 98.7721 177.183 99.0531 177.183 99.5736V136.561C177.201 136.873 177.291 137.176 177.447 137.447C177.602 137.718 177.818 137.949 178.078 138.122L188.967 144.368C189.466 144.649 189.872 144.452 189.872 143.837Z" fill="white"/>
</g>
<path d="M168.75 131.637V75.1203C168.732 74.8072 168.641 74.5027 168.484 74.2315C168.327 73.9602 168.108 73.7298 167.845 73.5588L156.956 67.3127C156.466 67.0212 156.06 67.2503 156.06 67.8332V124.339C156.077 124.651 156.167 124.955 156.322 125.227C156.478 125.498 156.695 125.729 156.956 125.901L167.845 132.147C168.324 132.438 168.75 132.209 168.75 131.637Z" fill="#6576FF"/>
<g opacity="0.2">
<path opacity="0.2" d="M168.75 131.637V75.1203C168.732 74.8072 168.641 74.5027 168.484 74.2315C168.327 73.9602 168.108 73.7298 167.845 73.5588L156.956 67.3127C156.466 67.0212 156.06 67.2503 156.06 67.8332V124.339C156.077 124.651 156.167 124.955 156.322 125.227C156.478 125.498 156.695 125.729 156.956 125.901L167.845 132.147C168.324 132.438 168.75 132.209 168.75 131.637Z" fill="black"/>
</g>
<path d="M147.576 119.467V38.4976C147.56 38.1852 147.471 37.881 147.315 37.6097C147.16 37.3384 146.942 37.1076 146.681 36.936L135.792 30.69C135.303 30.3985 134.897 30.69 134.897 31.2105V112.139C134.915 112.45 135.005 112.754 135.161 113.025C135.316 113.296 135.532 113.527 135.792 113.7L146.681 119.946C147.181 120.238 147.576 119.998 147.576 119.467Z" fill="#6576FF"/>
<path d="M372.403 132.407C372.257 131.626 368.437 122.736 366.865 119.238L358.901 122.965L361.951 129.95L370.196 136.332C370.999 136.087 371.676 135.543 372.087 134.812C372.498 134.081 372.611 133.22 372.403 132.407V132.407Z" fill="#FFA8A7"/>
<path d="M356.538 225.525H350.396V234.478H356.538V225.525Z" fill="#FFA8A7"/>
<path d="M334.902 214.468L328.764 214.679L329.072 223.627L335.21 223.415L334.902 214.468Z" fill="#FFA8A7"/>
<path d="M336.436 97.3146C334.214 97.3663 332.04 97.9794 330.118 99.097C328.196 100.215 326.588 101.8 325.443 103.706C322.05 108.755 316.074 117.385 316.074 117.385L327.265 120.935L336.436 97.3146Z" fill="#9CABFF"/>
<g opacity="0.7">
<path opacity="0.7" d="M336.436 97.3146C334.214 97.3663 332.04 97.9794 330.118 99.097C328.196 100.215 326.588 101.8 325.443 103.706C322.05 108.755 316.074 117.385 316.074 117.385L327.265 120.935L336.436 97.3146Z" fill="white"/>
</g>
<path d="M356.132 138.205C356.132 144.077 356.892 182.042 356.892 182.042C357.038 183.729 358.62 186.841 358.277 193.327C357.808 202.144 357.048 226.639 357.048 226.639C357.048 226.639 354.165 229.502 350.094 226.639C350.094 226.639 344.525 193.379 343.432 184.645C342.464 177.025 340.84 156.329 340.84 156.329L335.145 180.7C335.145 180.7 336.186 186.425 336.363 190.464C336.54 194.503 335.322 217.864 335.322 217.864C334.326 218.486 333.184 218.838 332.01 218.883C330.836 218.929 329.67 218.667 328.629 218.124C328.629 218.124 323.694 184 323.059 180.346C322.424 176.692 327.39 138.205 327.39 138.205H356.132Z" fill="#6576FF"/>
<path opacity="0.2" d="M356.132 138.205C356.132 144.077 356.892 182.042 356.892 182.042C357.038 183.729 358.62 186.841 358.277 193.327C357.808 202.144 357.048 226.639 357.048 226.639C357.048 226.639 354.165 229.502 350.094 226.639C350.094 226.639 344.525 193.379 343.432 184.645C342.464 177.025 340.84 156.329 340.84 156.329L335.145 180.7C335.145 180.7 336.186 186.425 336.363 190.464C336.54 194.503 335.322 217.864 335.322 217.864C334.326 218.486 333.184 218.838 332.01 218.883C330.836 218.929 329.67 218.667 328.629 218.124C328.629 218.124 323.694 184 323.059 180.346C322.424 176.692 327.39 138.205 327.39 138.205H356.132Z" fill="black"/>
<path d="M346.888 97.502C352.395 98.8241 359.38 101.052 361.837 106.132C364.294 111.212 368.083 119.446 368.083 119.446L358.964 124.839L356.132 119.967V138.205C351.822 142.89 336.79 145.076 327.38 138.205V108.183C327.38 103.405 330.044 97.6477 337.384 97.2209L346.888 97.502Z" fill="#9CABFF"/>
<path opacity="0.7" d="M346.888 97.502C352.395 98.8241 359.38 101.052 361.837 106.132C364.294 111.212 368.083 119.446 368.083 119.446L358.964 124.839L356.132 119.967V138.205C351.822 142.89 336.79 145.076 327.38 138.205V108.183C327.38 103.405 330.044 97.6477 337.384 97.2209L346.888 97.502Z" fill="white"/>
<path d="M348.96 72.9966C349.454 72.9397 349.955 72.9965 350.424 73.1624C350.893 73.3284 351.318 73.5992 351.666 73.9543C352.832 75.1411 352.593 77.348 351.666 82.4073L348.064 82.8238L348.96 72.9966Z" fill="#263238"/>
<path d="M328.025 71.5808C327.252 71.5904 326.486 71.4379 325.776 71.1332C324.673 70.4982 324.381 71.7474 324.985 72.8405C325.385 73.6201 325.977 74.2847 326.706 74.7712C327.435 75.2576 328.276 75.5498 329.149 75.62C329.149 75.4638 330.19 72.8092 330.19 72.8092L328.025 71.5808Z" fill="#263238"/>
<path d="M347.273 82.8237C347.804 83.1465 348.564 82.1159 349.22 81.4288C349.479 81.1333 349.809 80.9083 350.179 80.7751C350.549 80.6419 350.946 80.6048 351.334 80.6672C351.722 80.7297 352.088 80.8896 352.397 81.132C352.707 81.3745 352.95 81.6915 353.103 82.0534C354.196 84.354 351.718 87.425 350.261 88.4348C349.853 88.7867 349.346 89.0013 348.809 89.048C348.273 89.0947 347.735 88.9712 347.273 88.695L346.888 97.502C346.245 98.9133 345.261 100.143 344.026 101.08C342.79 102.018 341.342 102.634 339.809 102.874C334.604 103.571 335.697 99.3134 337.394 97.2209V94.0146C336.102 94.2946 334.773 94.3649 333.459 94.2228C332.782 94.0458 331.179 92.1408 330.138 89.9234C328.972 87.4771 327.015 83.136 328.764 75.7969C330.617 67.9165 339.08 67.677 344.14 70.8521C349.199 74.0272 347.273 82.8237 347.273 82.8237Z" fill="#FFA8A7"/>
<path d="M347.273 83.719C347.533 83.719 348.564 82.0326 349.22 81.4288C350.146 80.5856 348.96 72.9966 348.96 72.9966C348.96 72.9966 349.886 70.1234 348.064 68.208C346.243 66.2925 342.724 66.6256 340.142 66.5319C336.974 66.5479 333.835 65.9174 330.919 64.6789C327.255 63.0862 326.984 62.8988 326.526 64.5124C326.068 66.126 325.901 69.8007 328.087 72.2679L329.909 72.9446C329.909 72.9446 330.888 73.8086 334.302 74.225C337.458 74.4648 340.63 74.4055 343.775 74.048C344.764 73.9127 344.973 74.8704 345.504 77.4938C345.982 79.8048 346.368 83.7086 347.273 83.719Z" fill="#263238"/>
<path d="M348.949 73.59L352.176 71.8515C352.074 71.6348 351.928 71.4412 351.748 71.2825C351.568 71.1238 351.358 71.0033 351.13 70.9283C350.902 70.8534 350.662 70.8255 350.423 70.8464C350.184 70.8673 349.952 70.9366 349.74 71.05C349.307 71.2903 348.983 71.6883 348.836 72.1614C348.688 72.6345 348.729 73.1461 348.949 73.59V73.59Z" fill="#263238"/>
<path d="M337.394 94.0146C339.602 93.5986 341.766 92.9782 343.859 92.1616C344.844 91.6516 345.651 90.8525 346.17 89.8714C345.919 90.8525 345.472 91.7729 344.858 92.578C343.63 94.1395 337.394 95.2951 337.394 95.2951V94.0146Z" fill="#F28F8F"/>
<path d="M338.56 81.6266C338.556 81.755 338.577 81.8829 338.624 82.0027C338.67 82.1226 338.74 82.2319 338.829 82.3241C338.919 82.4164 339.026 82.4897 339.144 82.5398C339.262 82.5899 339.389 82.6157 339.518 82.6156C339.729 82.6323 339.939 82.5843 340.122 82.4782C340.305 82.3721 340.451 82.2127 340.542 82.0214C340.632 81.8301 340.661 81.6159 340.627 81.4073C340.592 81.1986 340.495 81.0055 340.348 80.8536C340.201 80.7017 340.011 80.5982 339.803 80.5569C339.596 80.5155 339.381 80.5384 339.187 80.6223C338.993 80.7062 338.829 80.8473 338.717 81.0267C338.605 81.2061 338.55 81.4154 338.56 81.6266V81.6266Z" fill="#263238"/>
<path d="M339.57 78.0039L341.652 79.1386C341.796 78.8566 341.827 78.53 341.738 78.2261C341.649 77.9221 341.447 77.6637 341.173 77.5042C341.036 77.4257 340.885 77.3764 340.728 77.3592C340.571 77.342 340.413 77.3573 340.262 77.4042C340.112 77.4511 339.973 77.5286 339.853 77.6318C339.734 77.735 339.638 77.8616 339.57 78.0039V78.0039Z" fill="#263238"/>
<path d="M338.633 88.1329L336.436 88.9553C336.486 89.1014 336.563 89.2362 336.665 89.3521C336.767 89.4679 336.89 89.5625 337.029 89.6302C337.167 89.698 337.318 89.7377 337.471 89.7469C337.625 89.7561 337.779 89.7347 337.925 89.684C338.219 89.5653 338.457 89.3382 338.588 89.0496C338.72 88.761 338.736 88.4329 338.633 88.1329V88.1329Z" fill="#F28F8F"/>
<path d="M330.003 78.8054L331.866 77.3584C331.778 77.2324 331.666 77.1255 331.536 77.0442C331.405 76.9629 331.26 76.909 331.108 76.8856C330.956 76.8622 330.801 76.87 330.652 76.9083C330.503 76.9466 330.364 77.0148 330.242 77.1086C329.991 77.3061 329.826 77.5928 329.782 77.9089C329.737 78.2251 329.816 78.5463 330.003 78.8054V78.8054Z" fill="#263238"/>
<path d="M330.575 81.3559C330.575 81.4817 330.6 81.6062 330.648 81.7224C330.696 81.8386 330.767 81.9442 330.856 82.0331C330.945 82.1221 331.05 82.1926 331.167 82.2407C331.283 82.2889 331.407 82.3136 331.533 82.3136C331.659 82.3136 331.783 82.2889 331.9 82.2407C332.016 82.1926 332.121 82.1221 332.21 82.0331C332.299 81.9442 332.37 81.8386 332.418 81.7224C332.466 81.6062 332.491 81.4817 332.491 81.3559C332.495 81.2275 332.473 81.0996 332.427 80.9798C332.381 80.86 332.311 80.7507 332.222 80.6584C332.132 80.5661 332.025 80.4928 331.907 80.4427C331.789 80.3926 331.662 80.3669 331.533 80.3669C331.275 80.3724 331.03 80.4794 330.851 80.6645C330.672 80.8497 330.573 81.0981 330.575 81.3559V81.3559Z" fill="#263238"/>
<path d="M335.458 80.4398L335.145 86.2175L332.137 85.1869L335.458 80.4398Z" fill="#F28F8F"/>
<path d="M310.39 115.21L334.937 121.674L342.183 152.145L318.843 145.368L310.39 115.21Z" fill="#6576FF"/>
<path d="M321.092 135.374C320.66 136.145 320.006 136.769 319.215 137.164C318.425 137.559 317.533 137.708 316.657 137.591L316.303 136.332L321.092 135.374Z" fill="#2C3782"/>
<path d="M326.578 136.332C326.682 137.144 328.358 138.643 331.179 139.58C334.386 140.621 339.309 140.09 339.309 140.09L338.872 138.57L326.578 136.332Z" fill="#2C3782"/>
<path opacity="0.43" d="M317.615 119.623L317.407 118.687C317.303 118.166 318.739 118.145 320.634 118.635L324.246 119.571C326.141 120.071 327.754 120.883 327.869 121.404L328.077 122.34L317.615 119.623Z" fill="#455A64"/>
<path d="M315.866 116.094C315.804 115.772 316.386 115.688 317.178 115.907L318.656 116.344C318.656 116.344 318.229 114.262 321.415 115.022C322.265 115.148 323.068 115.49 323.746 116.018C324.425 116.545 324.955 117.238 325.287 118.031L326.817 118.468C327.661 118.707 328.421 119.155 328.525 119.509L328.702 120.092L316.053 116.761L315.866 116.094Z" fill="#37474F"/>
<path d="M317.615 117.104C318.77 117.385 319.249 117.541 319.426 118.333C319.603 119.124 319.707 119.915 319.707 119.915L325.298 121.393C325.298 121.393 325.027 120.238 324.944 119.79C324.86 119.342 325.048 119.072 325.985 119.301L326.057 118.947L317.282 116.719L317.615 117.104Z" fill="#37474F"/>
<path d="M317.417 119.717L317.219 118.78C317.105 118.26 318.541 118.239 320.436 118.728L324.048 119.665C325.943 120.154 327.567 120.966 327.681 121.487L327.879 122.424L317.417 119.717Z" fill="#37474F"/>
<path d="M370.196 136.332L361.951 129.95C361.951 129.95 344.671 133.198 342.724 133.354C340.777 133.511 339.237 131.585 338.498 129.669C337.758 127.754 336.259 127.993 336.259 127.993C336.259 127.993 336.832 130.429 337.019 131.2C337.207 131.97 332.699 132.605 330.107 131.73C327.515 130.856 323.757 132.126 326.078 135.665C328.4 139.205 332.939 139.6 336.082 139.611C337.398 139.598 338.712 139.508 340.017 139.34C341.058 139.215 342.099 139.111 343.068 139.038C349.501 138.58 367.271 137.248 370.196 136.332Z" fill="#FFA8A7"/>
<path d="M312.878 124.121L313.971 128.004C314.18 128.753 317.032 130.086 318.843 130.606C320.655 131.127 322.622 131.647 321.768 134.218C320.977 136.54 318.01 137.071 316.501 137.008C315.484 136.837 314.535 136.387 313.757 135.709C312.98 135.031 312.406 134.151 312.098 133.167C311.056 130.2 311.619 127.025 311.202 125.287C310.786 123.548 311.983 123.09 312.878 124.121Z" fill="#F28F8F"/>
<path d="M350.396 231.449V230.564C349.813 230.824 348.439 236.04 346.003 238.257C344.067 240.027 341.423 242.078 340.798 244.045C340.174 246.013 344.483 247.231 346.295 246.908C348.377 246.533 352.051 245.055 352.968 243.681C353.884 242.307 354.31 240.277 355.05 239.267C355.789 238.257 357.506 237.185 357.912 235.977C358.033 234.889 357.912 233.787 357.558 232.75C357.277 231.657 356.965 230.47 356.601 230.564C356.601 230.699 356.601 231.241 356.601 231.241C355.708 231.932 354.607 232.299 353.478 232.282C352.572 232.313 350.386 232.136 350.396 231.449Z" fill="#37474F"/>
<path d="M329.066 221.715C328.743 221.715 328.483 222.173 327.786 222.933C326.732 223.997 325.508 224.877 324.163 225.536C321.862 226.691 317.396 228.461 315.366 229.377C314.096 229.95 314.159 231.459 315.47 232.344C316.782 233.229 319.936 233.843 323.726 232.989C325.808 232.531 328.483 230.626 330.18 230.72C331.877 230.814 335.062 230.803 336.322 229.939C337.581 229.075 337.071 227.222 336.717 225.63C336.363 224.037 335.78 221.247 335.208 221.361V221.913C334.469 223.027 330.7 223.485 329.076 222.663L329.066 221.715Z" fill="#37474F"/>
<path d="M62.89 217.978L66.7313 223.319C64.9801 224.127 63.0698 224.533 61.1411 224.505C57.7058 224.641 56.7585 223.464 56.6335 223.235C56.0506 221.996 56.9562 219.748 57.2061 217.812L62.89 217.978Z" fill="#37474F"/>
<path d="M56.6335 212.607C56.6335 212.607 57.2165 217.458 57.2581 218.499C57.2998 219.54 61.9947 219.883 62.89 217.978L63.0253 212.044L56.6335 212.607Z" fill="#F28F8F"/>
<path d="M56.6335 117.031C53.4272 122.028 50.3875 126.4 49.7212 132.043C48.3471 143.9 52.8443 157.454 53.8124 166.219C51.9921 168.72 50.9394 171.697 50.7831 174.787C50.7831 178.409 56.6335 212.607 56.6335 212.607C56.6335 212.607 60.8809 213.908 63.0253 212.044L67.0436 149.136L64.9616 141.474L56.6335 117.031Z" fill="#9CABFF"/>
<path opacity="0.5" d="M56.6335 117.031C53.4272 122.028 50.3875 126.4 49.7212 132.043C48.3471 143.9 52.8443 157.454 53.8124 166.219C51.9921 168.72 50.9394 171.697 50.7831 174.787C50.7831 178.409 56.6335 212.607 56.6335 212.607C56.6335 212.607 60.8809 213.908 63.0253 212.044L67.0436 149.136L64.9616 141.474L56.6335 117.031Z" fill="white"/>
<path d="M86.2711 93.5982L107.414 103.748L94.7241 132.282L75.0074 120.904L86.2711 93.5982Z" fill="#6576FF"/>
<path d="M104.926 104.269L93.9746 128.587L78.7967 119.842L87.4058 95.9093L104.926 104.269Z" fill="#2C3782"/>
<path d="M87.4058 95.9093L104.926 104.269L93.1002 128.847L76.5273 119.384L87.4058 95.9093Z" fill="white"/>
<path d="M91.2159 99.4279L91.6219 98.5534C91.8509 98.0746 93.2979 98.2724 94.8594 99.0115L97.8472 100.427C99.4087 101.156 100.481 102.155 100.262 102.634L99.8459 103.509L91.2159 99.4279Z" fill="#E0E0E0"/>
<path d="M49.461 103.852C47.9203 108.245 44.8702 115.22 45.8487 116.625C46.8273 118.031 52.6986 117.729 55.9673 117.604C60.1314 117.448 63.5875 117.281 63.5875 117.281L62.89 109.994H56.9771L59.5796 102.624L49.461 103.852Z" fill="#F28F8F"/>
<path d="M55.3843 88.2371C53.2294 91.7765 48.878 104.269 48.878 104.269C50.087 105.64 51.6906 106.603 53.4689 107.027C55.0219 107.504 56.6721 107.568 58.2575 107.215L63.067 95.2431L55.3843 88.2371Z" fill="#2C3782"/>
<path opacity="0.4" d="M55.3843 88.2371C53.2294 91.7765 48.878 104.269 48.878 104.269C50.087 105.64 51.6906 106.603 53.4689 107.027C55.0219 107.504 56.6721 107.568 58.2575 107.215L63.067 95.2431L55.3843 88.2371Z" fill="black"/>
<path d="M76.902 90.4648C80.6809 91.5995 82.9815 91.7973 87.156 98.2203C91.3304 104.643 100.47 117.385 101.376 118.916C102.636 120.998 103.177 123.579 102.094 125.536C101.012 127.494 98.1282 126.577 93.985 122.924C89.8418 119.27 82.0342 109.474 82.0342 109.474C82.0342 109.474 73.8935 100.302 76.902 90.4648Z" fill="#FFA8A7"/>
<path d="M73.8831 82.1367L72.8629 91.1623L63.9518 92.1929L65.2427 80.2108L73.8831 82.1367Z" fill="#FFA8A7"/>
<path d="M54.8222 68.9471C55.5613 60.619 60.0273 57.1733 63.5771 56.3509C70.6247 54.6853 76.9124 57.2462 79.7648 62.191C80.5143 63.4922 81.774 68.3642 79.2651 71.2373C76.7563 74.1105 54.8222 68.9471 54.8222 68.9471" fill="#263238"/>
<path d="M80.4623 71.8828C80.4623 71.8828 82.3153 75.0058 82.0342 75.3597C81.5416 75.6459 81.0024 75.8432 80.4415 75.9427L80.4623 71.8828Z" fill="#F28F8F"/>
<path d="M74.8408 61.837C76.7563 62.9717 80.0459 65.0433 80.4935 72.3304C80.9619 79.8153 79.5358 82.1159 78.4115 83.032C77.6932 83.6566 74.008 83.4484 72.1654 82.7717C69.9064 81.9181 64.8783 79.5967 62.713 75.62C60.2146 70.9459 59.996 64.8976 63.3064 62.7219C64.9942 61.6036 66.9399 60.9352 68.9586 60.7804C70.9773 60.6255 73.0022 60.9892 74.8408 61.837V61.837Z" fill="#FFA8A7"/>
<path d="M75.403 62.2118C75.403 62.2118 76.7251 69.0929 74.4348 73.2569C74.4348 73.2569 73.3938 70.5399 71.062 71.1749C68.7301 71.8099 68.7613 74.8705 70.479 76.5361C70.9141 77.01 71.4743 77.3514 72.095 77.5208C72.7157 77.6903 73.3716 77.6809 73.9872 77.4938C73.6635 79.637 72.6642 81.621 71.1348 83.1569C68.7071 83.7186 66.17 83.5827 63.8161 82.7649C61.4622 81.9471 59.3873 80.4807 57.8307 78.5348C52.6257 72.3512 53.9894 61.8787 62.2446 59.6301C70.4998 57.3815 75.403 62.2118 75.403 62.2118Z" fill="#263238"/>
<path d="M66.5128 220.758C66.5128 220.758 71.1765 220.456 74.3932 220.05C77.6099 219.644 80.1604 221.216 79.4005 222.548C78.6405 223.881 76.8708 224.974 74.1121 225.9C71.749 226.702 68.9071 227.274 66.4503 227.982C63.9935 228.69 62.2863 229.606 60.8601 229.117C59.2673 228.565 58.5803 227.93 58.7156 226.764C59.0632 225.106 59.4941 223.466 60.0065 221.851L66.5128 220.758Z" fill="#37474F"/>
<path d="M61.3597 215.594L59.6837 222.954C59.6837 222.954 59.5276 223.849 63.3585 224.422C67.1894 224.995 73.2064 222.423 74.237 221.892C75.2676 221.361 75.3822 220.331 71.6137 220.539C67.8452 220.747 66.5127 220.758 66.5127 220.758L67.7724 217.489L61.3597 215.594Z" fill="#FFA8A7"/>
<path d="M67.0437 149.136L64.9616 141.474C60.9752 140.425 57.1303 138.897 53.5105 136.925C53.5105 136.925 55.6758 140.871 61.8386 143.025L65.0762 152.873L65.3572 175.401L67.0437 149.136Z" fill="#6576FF"/>
<path d="M56.6336 117.031C54.9159 119.832 50.8143 124.631 51.6783 129.232C52.7194 134.822 55.7487 138.736 64.9304 141.474L73.55 172.705C73.55 172.705 69.0632 176.869 67.6891 180.897C66.315 184.926 61.3597 215.625 61.3597 215.625C61.3597 215.625 62.89 218.124 67.7307 217.52C67.7307 217.52 84.6055 179.003 85.8027 176.494C87.2309 173.968 87.7352 171.023 87.2289 168.166C86.6979 164.116 80.9828 119.905 80.9828 119.905L56.6336 117.031Z" fill="#9CABFF"/>
<path opacity="0.5" d="M56.6336 117.031C54.9159 119.832 50.8143 124.631 51.6783 129.232C52.7194 134.822 55.7487 138.736 64.9304 141.474L73.55 172.705C73.55 172.705 69.0632 176.869 67.6891 180.897C66.315 184.926 61.3597 215.625 61.3597 215.625C61.3597 215.625 62.89 218.124 67.7307 217.52C67.7307 217.52 84.6055 179.003 85.8027 176.494C87.2309 173.968 87.7352 171.023 87.2289 168.166C86.6979 164.116 80.9828 119.905 80.9828 119.905L56.6336 117.031Z" fill="white"/>
<path d="M55.072 88.8825C55.7383 87.1128 57.8619 85.6345 59.7774 86.155C65.784 87.7894 75.1219 89.9443 76.902 90.4648C76.902 90.4648 76.1109 103.998 83.0232 108.037C82.7004 110.608 80.9411 119.832 80.9411 119.832C80.9411 119.832 72.6131 123.871 65.784 121.914C58.955 119.957 56.6336 117.063 56.6336 117.063L60.0585 111.483C59.3298 109.661 56.4982 103.509 54.6764 97.7831C54.0065 94.8346 54.1432 91.76 55.072 88.8825V88.8825Z" fill="#6576FF"/>
<path opacity="0.2" d="M55.072 88.8825C55.7383 87.1128 57.8619 85.6345 59.7774 86.155C65.784 87.7894 75.1219 89.9443 76.902 90.4648C76.902 90.4648 76.1109 103.998 83.0232 108.037C82.7004 110.608 80.9411 119.832 80.9411 119.832C80.9411 119.832 72.6131 123.871 65.784 121.914C58.955 119.957 56.6336 117.063 56.6336 117.063L60.0585 111.483C59.3298 109.661 56.4982 103.509 54.6764 97.7831C54.0065 94.8346 54.1432 91.76 55.072 88.8825V88.8825Z" fill="black"/>
<path opacity="0.25" d="M59.1216 109.255C61.9684 110.967 64.9525 112.44 68.043 113.659C65.2385 113.604 62.4927 112.845 60.0585 111.452L59.1216 109.255Z" fill="#6576FF"/>
<path d="M60.8913 58.2039C60.8913 58.2039 58.0389 53.3424 51.0537 54.602C44.0686 55.8616 41.237 63.2736 41.3411 67.9686C41.4452 72.6635 43.0171 75.9427 38.8115 81.5017C37.9825 82.598 37.3984 83.8593 37.0985 85.2006C36.7987 86.5419 36.7901 87.9319 37.0732 89.2767C37.3564 90.6216 37.9248 91.8901 38.7401 92.9966C39.5554 94.1031 40.5985 95.0218 41.7992 95.6907C47.4102 98.8137 48.7739 93.3796 47.4727 88.7367C45.9736 83.4172 51.543 82.4907 53.0317 78.462C54.5203 74.4332 51.5951 65.9698 53.4689 63.0967C55.5509 59.9736 58.3616 60.4108 59.7149 61.4727L60.8913 58.2039Z" fill="#263238"/>
<path d="M76.902 90.4648C78.769 90.8615 80.5925 91.4403 82.3465 92.1929C84.6367 93.3172 93.5686 107.34 93.5686 107.34C93.5686 107.34 92.9336 112.618 85.6257 114.71L81.3055 109.255C81.3055 109.255 74.9553 99.7714 76.902 90.4648Z" fill="#9CABFF"/>
<path opacity="0.1" d="M76.902 90.4648C78.769 90.8615 80.5925 91.4403 82.3465 92.1929C84.6367 93.3172 93.5686 107.34 93.5686 107.34C93.5686 107.34 92.9336 112.618 85.6257 114.71L81.3055 109.255C81.3055 109.255 74.9553 99.7714 76.902 90.4648Z" fill="black"/>
<path d="M82.5755 110.9C80.656 108.666 79.2078 106.067 78.3178 103.259C78.3178 103.259 78.3178 109.318 82.3049 112.451L82.5755 110.9Z" fill="#9CABFF"/>
<path opacity="0.4" d="M82.5755 110.9C80.656 108.666 79.2078 106.067 78.3178 103.259C78.3178 103.259 78.3178 109.318 82.3049 112.451L82.5755 110.9Z" fill="black"/>
<path d="M91.9759 95.6595C92.1112 95.3576 92.7462 95.3784 93.3916 95.6595L94.5576 96.232C94.5576 96.232 95.4632 94.3478 98.1699 95.4825C100.876 96.6172 100.044 98.7929 100.044 98.7929L101.282 99.4279C101.97 99.7715 102.428 100.302 102.324 100.615L102.115 101.166L91.7052 96.1696L91.9759 95.6595Z" fill="#455A64"/>
<path d="M93.0377 96.8462C94.0162 97.2834 94.391 97.4916 94.0787 98.2412C93.7664 98.9907 93.3188 99.709 93.3188 99.709L97.92 101.916C97.92 101.916 98.4093 100.875 98.6175 100.417C98.8257 99.9588 99.2005 99.7818 99.9292 100.136L100.241 99.8235L92.9544 96.4402L93.0377 96.8462Z" fill="#455A64"/>
<path d="M91.1327 99.1676L91.5491 98.2932C91.7781 97.8039 93.2251 98.0121 94.7866 98.7513L97.7743 100.167C99.3254 100.896 100.408 101.885 100.179 102.374L99.7626 103.248L91.1327 99.1676Z" fill="#455A64"/>
</svg>
