<svg width="459" height="406" viewBox="0 0 459 406" fill="none" xmlns="http://www.w3.org/2000/svg">
<path d="M234.9 405.23C358.424 405.23 458.56 350.792 458.56 283.64C458.56 216.488 358.424 162.05 234.9 162.05C111.376 162.05 11.24 216.488 11.24 283.64C11.24 350.792 111.376 405.23 234.9 405.23Z" fill="#F5F5F5"/>
<path d="M348.05 269C373.809 269 394.69 256.943 394.69 242.07C394.69 227.197 373.809 215.14 348.05 215.14C322.291 215.14 301.41 227.197 301.41 242.07C301.41 256.943 322.291 269 348.05 269Z" fill="#E0E0E0"/>
<path d="M95.75 337.29C121.509 337.29 142.39 325.233 142.39 310.36C142.39 295.487 121.509 283.43 95.75 283.43C69.9914 283.43 49.11 295.487 49.11 310.36C49.11 325.233 69.9914 337.29 95.75 337.29Z" fill="#E0E0E0"/>
<path d="M418.14 232.65L411.4 228.8C411.4 228.8 408.17 210.99 410.58 195.69C413.98 174.17 428.63 166.74 433.96 168.88C439.29 171.02 440.53 177.4 430.96 189.88C425.25 197.17 418 212.67 418.14 232.65Z" fill="#6576FF"/>
<g opacity="0.1">
<path opacity="0.1" d="M418.14 232.65L411.4 228.8C411.4 228.8 408.17 210.99 410.58 195.69C413.98 174.17 428.63 166.74 433.96 168.88C439.29 171.02 440.53 177.4 430.96 189.88C425.25 197.17 418 212.67 418.14 232.65Z" fill="black"/>
</g>
<path d="M414.93 223.89H415C415.063 223.884 415.124 223.865 415.18 223.835C415.236 223.805 415.286 223.764 415.326 223.715C415.366 223.665 415.395 223.609 415.413 223.548C415.431 223.487 415.437 223.423 415.43 223.36C413.23 203.14 421.97 181.36 431.33 172.69C431.424 172.602 431.48 172.481 431.484 172.353C431.489 172.224 431.443 172.099 431.355 172.005C431.268 171.911 431.146 171.855 431.018 171.851C430.889 171.846 430.764 171.892 430.67 171.98C421.15 180.77 412.24 202.98 414.47 223.47C414.486 223.582 414.541 223.686 414.625 223.762C414.709 223.839 414.817 223.884 414.93 223.89V223.89Z" fill="white"/>
<path d="M436.83 243.44C437.89 244.05 440.08 242.72 440.92 242.15C442.361 241.173 443.526 239.84 444.3 238.28C445.168 236.507 445.465 234.509 445.15 232.56C444.974 231.546 444.733 230.544 444.43 229.56C444.14 228.56 443.86 227.56 443.58 226.61C443.233 225.65 443.086 224.629 443.15 223.61C443.4 221.61 445.15 220.18 446.82 218.96C448.62 217.61 450.5 215.83 450.49 213.4C450.354 211.515 449.602 209.726 448.35 208.31C447.19 206.84 445.81 205.54 444.76 203.99C443.929 202.909 443.498 201.573 443.54 200.21C443.648 199.378 443.927 198.578 444.36 197.86C445.346 196.355 446.209 194.773 446.94 193.13C447.53 191.43 447.45 189.31 446.12 188.13C445.525 187.694 444.848 187.381 444.131 187.209C443.413 187.037 442.668 187.01 441.94 187.13C440.56 187.298 439.233 187.762 438.05 188.49C434.19 190.64 431.99 195.21 427.9 196.86C426.29 197.334 424.654 197.715 423 198C422.16 198.153 421.361 198.481 420.656 198.964C419.951 199.446 419.356 200.072 418.91 200.8C417.41 203.8 420.2 207.5 419.14 210.68C418.2 213.5 415.46 214.58 413.93 217.12C413.301 218.241 413.049 219.535 413.21 220.81C413.341 222.967 413.866 225.082 414.76 227.05C415.763 229.005 416.91 230.884 418.19 232.67C418.2 232.71 436.66 243.35 436.83 243.44Z" fill="#6576FF"/>
<path d="M425.89 237.62C425.954 237.619 426.017 237.605 426.075 237.579C426.134 237.553 426.186 237.515 426.23 237.469C426.274 237.422 426.308 237.367 426.33 237.308C426.353 237.248 426.363 237.184 426.36 237.12C425.57 218.05 434.55 197 441.09 190.88C441.136 190.837 441.173 190.785 441.199 190.727C441.225 190.669 441.239 190.607 441.241 190.544C441.243 190.481 441.232 190.418 441.21 190.359C441.187 190.3 441.153 190.246 441.11 190.2C441.067 190.154 441.015 190.117 440.957 190.091C440.899 190.065 440.837 190.051 440.774 190.049C440.711 190.047 440.648 190.058 440.589 190.08C440.53 190.103 440.476 190.137 440.43 190.18C433.76 196.42 424.6 217.82 425.43 237.18C425.44 237.297 425.492 237.406 425.577 237.487C425.661 237.568 425.773 237.616 425.89 237.62V237.62Z" fill="white"/>
<path d="M428.75 215.09H428.89C433.408 213.841 438.049 213.093 442.73 212.86C442.856 212.852 442.975 212.796 443.061 212.703C443.147 212.609 443.193 212.487 443.19 212.36C443.19 212.296 443.177 212.233 443.152 212.174C443.126 212.116 443.089 212.063 443.041 212.02C442.994 211.976 442.939 211.943 442.878 211.923C442.818 211.902 442.754 211.894 442.69 211.9C437.928 212.14 433.206 212.901 428.61 214.17C428.55 214.188 428.493 214.218 428.444 214.258C428.396 214.298 428.355 214.348 428.325 214.404C428.296 214.459 428.277 214.52 428.271 214.583C428.265 214.646 428.272 214.71 428.29 214.77C428.322 214.866 428.384 214.948 428.467 215.006C428.55 215.064 428.649 215.093 428.75 215.09V215.09Z" fill="white"/>
<path d="M30.43 254.31L37.13 250.44C37.13 250.44 40.38 232.63 37.96 217.33C34.57 195.81 19.96 188.39 14.59 190.52C9.22003 192.65 8.02003 199.04 17.59 211.52C23.3 218.81 30.61 234.34 30.43 254.31Z" fill="#6576FF"/>
<g opacity="0.1">
<path opacity="0.1" d="M30.43 254.31L37.13 250.44C37.13 250.44 40.38 232.63 37.96 217.33C34.57 195.81 19.96 188.39 14.59 190.52C9.22003 192.65 8.02003 199.04 17.59 211.52C23.3 218.81 30.61 234.34 30.43 254.31Z" fill="black"/>
</g>
<path d="M34 253.28C33.8691 253.272 33.7465 253.213 33.6586 253.116C33.5707 253.019 33.5245 252.891 33.53 252.76C35.11 222.76 30.89 205.69 19.41 195.56C19.3178 195.465 19.2662 195.337 19.2662 195.205C19.2662 195.072 19.3178 194.945 19.41 194.85C19.5052 194.758 19.6325 194.706 19.765 194.706C19.8975 194.706 20.0249 194.758 20.12 194.85C31.85 205.2 36.18 222.55 34.58 252.85C34.5715 252.917 34.5496 252.981 34.5155 253.04C34.4814 253.098 34.436 253.149 34.3818 253.189C34.3276 253.229 34.2658 253.258 34.2002 253.273C34.1346 253.289 34.0665 253.291 34 253.28Z" fill="white"/>
<path d="M32.46 253.13C32.6 246.69 28.85 225.36 16.23 217.6C3.61002 209.84 -2.51998 219.51 2.59002 225.37C6.34002 229.66 13.32 232.76 19.89 241.63C24.4 247.73 27 256.3 27 256.3L32.46 253.13Z" fill="#6576FF"/>
<path d="M30.2 255.63C30.0724 255.63 29.9496 255.582 29.8567 255.494C29.7637 255.407 29.7077 255.287 29.7 255.16C28.49 238.9 19.26 224.31 7.25002 219.69C7.1883 219.666 7.13184 219.631 7.08386 219.585C7.03588 219.54 6.99733 219.485 6.9704 219.425C6.94347 219.365 6.92869 219.3 6.92691 219.234C6.92513 219.167 6.93638 219.102 6.96002 219.04C6.98365 218.978 7.01922 218.922 7.06468 218.874C7.11013 218.826 7.1646 218.787 7.22496 218.76C7.28531 218.733 7.35039 218.719 7.41645 218.717C7.48252 218.715 7.5483 218.726 7.61002 218.75C20 223.52 29.46 238.46 30.7 255.09C30.7055 255.156 30.6975 255.223 30.6767 255.287C30.6559 255.35 30.6226 255.409 30.5788 255.459C30.535 255.509 30.4816 255.55 30.4217 255.58C30.3618 255.609 30.2966 255.626 30.23 255.63H30.2Z" fill="white"/>
<path d="M284.48 63.45C286 64.7 287.74 65.35 289.74 67.29C291.004 68.7287 292.6 69.8374 294.39 70.52C296.7 71.44 298.87 71.17 305.28 70.14C313.11 68.89 316.48 67.57 319.86 64.69C323.81 61.32 332.65 51.15 336.92 47.16C341.44 42.94 347.65 44.57 347.65 44.57C345.728 50.8249 342.869 56.7522 339.17 62.15C335.75 67.02 329.36 71.69 326.47 74.09C321.84 77.94 319.38 79.46 309.22 80.23C301.55 80.81 300.53 80.99 294.22 80.81C291.95 80.74 290.54 80.72 286.82 80.41C285.205 80.3042 283.606 80.026 282.05 79.58C280.29 79.175 278.604 78.5003 277.05 77.58C275.022 76.2631 273.385 74.4258 272.31 72.26C271.723 71.0692 271.421 69.7577 271.43 68.43C271.446 67.0918 271.935 65.8024 272.81 64.79C272.982 64.5833 273.201 64.4219 273.45 64.32C273.935 64.2374 274.433 64.3448 274.84 64.62C277.24 65.85 279.66 67.55 282.18 68.52C284.3 69.33 285.92 69.62 285.76 69.19C285.6 68.76 284.32 68.37 283 66.88C281.68 65.39 281.35 63.32 282.2 62.67C283.05 62.02 283 62.19 284.48 63.45Z" fill="#FFA8A7"/>
<path d="M349.47 44.54C347.053 43.3783 344.311 43.0783 341.7 43.69C337.75 44.83 334.58 47.41 330.81 51.46C327.04 55.51 320.67 62.05 320.67 62.05C320.67 62.05 323.81 69.98 330.85 72.8L345.61 59.15L349.47 44.54Z" fill="#E0E0E0"/>
<path d="M371.16 225.74H362.21V241.06H371.16V225.74Z" fill="#FFA8A7"/>
<path d="M346.39 229.6L337.45 229.91L337 213.7L346.39 213.39V229.6Z" fill="#FFA8A7"/>
<path d="M375 111.37C375 119.91 373.49 169.61 373.49 169.61C373.69 172.07 376.06 176.44 376.25 185.3C376.51 198.14 371.57 233.4 371.57 233.4C370.02 234.166 368.321 234.58 366.592 234.615C364.864 234.65 363.149 234.303 361.57 233.6C361.57 233.6 357.51 185.8 355.9 173.09C354.5 161.99 352.13 131.85 352.13 131.85L347.92 168.07C348.946 172.736 349.309 177.523 349 182.29C348.58 188.17 346.92 224.58 346.92 224.58C345.362 225.462 343.628 225.989 341.843 226.126C340.058 226.263 338.264 226.004 336.59 225.37C336.59 225.37 330.28 173.46 330.18 168.07C330.06 161.92 332.51 99.13 332.51 99.13L375 111.37Z" fill="#37474F"/>
<path d="M369.09 48.51C371.06 49.383 372.608 50.9957 373.4 53C374.318 55.4716 374.762 58.0939 374.71 60.73V78.26L374.97 111.37C362.12 118.14 345.8 118.59 332.09 108.58C332.09 108.58 332.86 65.97 332.86 59C332.86 58.69 332.86 58.37 332.86 58C333.36 48 343.16 41.21 352.86 43.69L361 45.83L369.14 48.51H369.09Z" fill="#F0F0F0"/>
<path d="M348.936 27.8924C355.548 26.332 359.643 19.7073 358.082 13.0959C356.522 6.48444 349.897 2.38979 343.286 3.95023C336.674 5.51068 332.579 12.1353 334.14 18.7468C335.7 25.3582 342.325 29.4529 348.936 27.8924Z" fill="#FF725E"/>
<path opacity="0.5" d="M348.936 27.8924C355.548 26.332 359.643 19.7073 358.082 13.0959C356.522 6.48444 349.897 2.38979 343.286 3.95023C336.674 5.51068 332.579 12.1353 334.14 18.7468C335.7 25.3582 342.325 29.4529 348.936 27.8924Z" fill="black"/>
<path d="M367.37 24.64C367.37 24.64 365.37 34.01 364.58 35.54C364.051 36.497 363.174 37.2134 362.13 37.54L362.27 30.95L367.37 24.64Z" fill="#FF725E"/>
<path opacity="0.5" d="M367.37 24.64C367.37 24.64 365.37 34.01 364.58 35.54C364.051 36.497 363.174 37.2134 362.13 37.54L362.27 30.95L367.37 24.64Z" fill="black"/>
<path d="M364.87 11.23C365.568 11.1485 366.274 11.2278 366.937 11.4618C367.599 11.6958 368.199 12.0783 368.69 12.58C370.33 14.25 369.41 19.5 367.37 24.64L363.62 25.08L364.87 11.23Z" fill="#FF725E"/>
<path opacity="0.5" d="M364.87 11.23C365.568 11.1485 366.274 11.2278 366.937 11.4618C367.599 11.6958 368.199 12.0783 368.69 12.58C370.33 14.25 369.41 19.5 367.37 24.64L363.62 25.08L364.87 11.23Z" fill="black"/>
<path d="M362.49 25.08C363.24 25.53 364.32 24.08 365.24 23.08C366.16 22.08 369.24 20.78 370.71 23.97C372.18 27.16 369.38 31.5 366.99 32.25C362.88 33.54 362.27 30.9 362.27 30.9L362 46.22C356.89 52.77 342.71 52.22 348.62 45.37V40.86C346.789 41.1499 344.931 41.2437 343.08 41.14C340.08 40.67 338.15 38.29 337.23 35.02C335.76 29.76 335.23 25.52 336.45 15.18C337.82 3.85001 351 3.73001 358.12 8.18001C365.24 12.63 362.49 25.08 362.49 25.08Z" fill="#FFA8A7"/>
<path d="M362.49 26.34C362.87 26.34 364.31 23.96 365.24 23.11C366.54 21.93 364.87 11.23 364.87 11.23C365.212 10.3046 365.275 9.29942 365.053 8.33823C364.831 7.37704 364.333 6.50174 363.62 5.82C361.84 3.82 358.87 3.65 353.79 2.82C351.13 2.4 347.09 1.66 344.43 1.16C341.26 0.57 338.63 -0.0499979 336.43 1.9C335.549 2.65898 334.926 3.67288 334.646 4.80151C334.367 5.93013 334.445 7.11771 334.87 8.2C335.497 9.54814 336.617 10.6042 338 11.15C338 11.15 339.38 12.38 344.2 12.97C348.645 13.2992 353.111 13.2122 357.54 12.71C358.94 12.52 359.24 13.88 359.99 17.57C360.67 20.82 361.22 26.32 362.49 26.34Z" fill="#FF725E"/>
<path opacity="0.5" d="M362.49 26.34C362.87 26.34 364.31 23.96 365.24 23.11C366.54 21.93 364.87 11.23 364.87 11.23C365.212 10.3046 365.275 9.29942 365.053 8.33823C364.831 7.37704 364.333 6.50174 363.62 5.82C361.84 3.82 358.87 3.65 353.79 2.82C351.13 2.4 347.09 1.66 344.43 1.16C341.26 0.57 338.63 -0.0499979 336.43 1.9C335.549 2.65898 334.926 3.67288 334.646 4.80151C334.367 5.93013 334.445 7.11771 334.87 8.2C335.497 9.54814 336.617 10.6042 338 11.15C338 11.15 339.38 12.38 344.2 12.97C348.645 13.2992 353.111 13.2122 357.54 12.71C358.94 12.52 359.24 13.88 359.99 17.57C360.67 20.82 361.22 26.32 362.49 26.34Z" fill="black"/>
<path d="M364.86 12.06L369.41 9.61999C369.264 9.31821 369.06 9.04865 368.808 8.82723C368.557 8.6058 368.263 8.43699 367.945 8.33074C367.628 8.22449 367.292 8.18295 366.958 8.20859C366.624 8.23422 366.298 8.3265 366 8.47999C365.386 8.81553 364.925 9.3748 364.713 10.0415C364.5 10.7083 364.553 11.4312 364.86 12.06V12.06Z" fill="#FF725E"/>
<path opacity="0.5" d="M364.86 12.06L369.41 9.61999C369.264 9.31821 369.06 9.04865 368.808 8.82723C368.557 8.6058 368.263 8.43699 367.945 8.33074C367.628 8.22449 367.292 8.18295 366.958 8.20859C366.624 8.23422 366.298 8.3265 366 8.47999C365.386 8.81553 364.925 9.3748 364.713 10.0415C364.5 10.7083 364.553 11.4312 364.86 12.06V12.06Z" fill="black"/>
<path d="M348.59 40.86C348.59 40.86 355.34 39.5 357.7 38.24C359.104 37.5205 360.255 36.3903 361 35C360.645 36.3782 360.016 37.6707 359.15 38.8C357.42 41.01 348.63 42.63 348.63 42.63L348.59 40.86Z" fill="#F28F8F"/>
<path d="M348.92 23.39C348.928 23.6552 349.014 23.9121 349.167 24.1288C349.32 24.3455 349.533 24.5123 349.78 24.6084C350.028 24.7044 350.298 24.7255 350.557 24.669C350.816 24.6125 351.053 24.4809 351.238 24.2906C351.423 24.1003 351.547 23.8597 351.596 23.599C351.645 23.3383 351.616 23.0689 351.513 22.8246C351.41 22.5802 351.237 22.3717 351.016 22.225C350.795 22.0784 350.535 22.0001 350.27 22C349.907 22.0079 349.563 22.1581 349.31 22.4182C349.057 22.6783 348.917 23.0274 348.92 23.39Z" fill="#263238"/>
<path d="M350.35 18.28L353.25 19.88C353.453 19.4826 353.496 19.0222 353.37 18.5941C353.243 18.166 352.957 17.8029 352.57 17.58C352.379 17.4752 352.169 17.4101 351.953 17.3887C351.736 17.3673 351.518 17.39 351.31 17.4554C351.103 17.5209 350.911 17.6277 350.746 17.7694C350.581 17.9111 350.446 18.0848 350.35 18.28V18.28Z" fill="#263238"/>
<path d="M349.2 32.73L346.11 33.89C346.179 34.0955 346.289 34.285 346.433 34.4473C346.577 34.6095 346.753 34.7411 346.948 34.8344C347.144 34.9277 347.357 34.9807 347.574 34.9902C347.79 34.9998 348.007 34.9657 348.21 34.89C348.621 34.7265 348.954 34.4107 349.138 34.0084C349.322 33.6061 349.345 33.1483 349.2 32.73V32.73Z" fill="#F28F8F"/>
<path d="M337.25 19.41L339.89 17.41C339.772 17.2266 339.617 17.0696 339.435 16.9486C339.254 16.8277 339.049 16.7454 338.834 16.7069C338.619 16.6685 338.399 16.6746 338.187 16.7251C337.974 16.7755 337.775 16.8691 337.6 17C337.238 17.2761 336.999 17.683 336.933 18.1336C336.868 18.5841 336.981 19.0424 337.25 19.41Z" fill="#263238"/>
<path d="M338.06 23C338.07 23.2666 338.158 23.5245 338.313 23.7415C338.468 23.9584 338.684 24.125 338.933 24.2203C339.182 24.3156 339.454 24.3355 339.715 24.2775C339.975 24.2195 340.213 24.0862 340.398 23.8941C340.583 23.7021 340.708 23.4598 340.756 23.1975C340.805 22.9351 340.775 22.6643 340.671 22.4187C340.567 22.173 340.393 21.9635 340.17 21.8162C339.948 21.6688 339.687 21.5902 339.42 21.59C339.238 21.5926 339.058 21.6312 338.891 21.7036C338.724 21.776 338.573 21.8808 338.446 22.0118C338.32 22.1429 338.221 22.2977 338.154 22.4673C338.088 22.6369 338.056 22.8179 338.06 23V23Z" fill="#263238"/>
<path d="M344.95 21.72L344.51 29.86L340.26 28.41L344.95 21.72Z" fill="#F28F8F"/>
<path d="M362.21 236.64V235.36C361.35 235.74 359.36 243.36 355.81 246.56C352.99 249.14 349.14 252.11 348.16 254.98C347.18 257.85 353.52 259.61 356.16 259.15C359.22 258.6 364.53 256.45 365.87 254.45C367.21 252.45 367.82 249.5 368.87 248.03C369.92 246.56 372.45 244.93 373.03 243.23C373.35 242.3 372.97 240.23 372.52 238.54C372.07 236.85 371.66 235.22 371.12 235.36C371.12 235.56 371.12 236.36 371.12 236.36C369.843 237.36 368.262 237.893 366.64 237.87C365.37 237.9 362.2 237.64 362.21 236.64Z" fill="#263238"/>
<path d="M337.36 227.15C336.89 227.15 336.51 227.82 335.49 228.93C333.96 230.477 332.182 231.758 330.23 232.72C326.88 234.39 320.36 236.97 317.41 238.3C315.57 239.13 315.66 241.36 317.56 242.62C319.46 243.88 324.06 244.8 329.56 243.57C332.56 242.89 336.48 240.12 338.96 240.27C341.44 240.42 346.07 240.38 347.9 239.12C349.73 237.86 349 235.17 348.48 232.85C347.92 230.33 347.21 226.39 346.38 226.57V227.44C345.3 229.07 339.75 229.73 337.38 228.53L337.36 227.15Z" fill="#263238"/>
<path d="M352.14 131.85C347.514 130.411 343.261 127.973 339.68 124.71C339.68 124.71 342.08 129.21 349.23 133.4L348.23 165.03L352.14 131.85Z" fill="#263238"/>
<path d="M86.73 74.34H89.92C94.67 74.34 99.2255 76.2269 102.584 79.5857C105.943 82.9445 107.83 87.5 107.83 92.25V130.25H68.83V92.25C68.83 87.5 70.717 82.9445 74.0757 79.5857C77.4345 76.2269 81.99 74.34 86.74 74.34H86.73Z" fill="#263238"/>
<path d="M85.45 317.07L82.94 314.84C80.51 312.62 78.66 308.84 77.59 306.3C76.9861 304.834 76.6736 303.265 76.67 301.68V296.68H67.91V304.81V305C68.33 306.82 72.36 311.67 74.64 314.83C76.18 316.95 79.09 319.64 82.57 320.11C85.9 320.61 87.59 319.57 85.45 317.07Z" fill="#FFA8A7"/>
<path d="M110.78 303.73C111.026 303.588 111.24 303.397 111.41 303.17C112.09 302.23 111.55 301.72 111.05 300.97C110.45 299.929 109.947 298.834 109.55 297.7C109.14 296.7 108.61 294.92 108.61 294.92C108.61 294.92 108.61 293.61 108.61 293.08V288.08H99.84V296.43C100.29 298.43 102.07 300.26 103.23 301.81C104.13 303.01 106.45 303.62 107.85 303.92C108.464 304.077 109.101 304.122 109.73 304.05C110.097 304.012 110.454 303.903 110.78 303.73V303.73Z" fill="#FFA8A7"/>
<path d="M69.65 168.86C62.85 183.71 69.9 236.01 69.9 236.01C69.69 238.42 66.9 243.16 65.9 253.76C64.69 266.29 67.8 297.76 67.8 297.76C69.1386 298.535 70.646 298.972 72.1917 299.033C73.7373 299.094 75.2745 298.777 76.67 298.11C76.67 298.11 85.02 250.73 86.59 238.27C87.96 227.4 90.59 203.5 90.59 203.5L95.82 238.26C94.7333 241.767 93.9471 245.36 93.47 249C92.76 256.32 99.86 290.44 99.86 290.44C99.86 290.44 102.86 291.55 108.63 290.7C108.63 290.7 111.14 245.43 111.8 236.6C112.91 221.78 111.22 175.48 108.5 166.71L69.65 168.86Z" fill="#37474F"/>
<path d="M90.61 203.49L92.81 189.7C92.81 189.7 102.15 187.76 106.38 183.78C106.38 183.78 101.94 189.31 95.38 191.12L92.9 201.73L95.12 233.23L90.61 203.49Z" fill="#263238"/>
<path d="M76.7 303.5V302.23C77.54 302.6 79.5 310.06 82.99 313.23C85.76 315.76 89.55 318.68 90.51 321.5C91.47 324.32 85.24 326.05 82.65 325.6C79.65 325.06 74.43 322.94 73.12 320.98C71.81 319.02 71.19 316.12 70.12 314.68C69.05 313.24 66.6 311.64 66 310C65.68 309.09 66.06 307.08 66.5 305.39C66.94 303.7 67.35 302.13 67.88 302.27V303.27C69.1316 304.251 70.6799 304.776 72.27 304.76C73.59 304.74 76.71 304.48 76.7 303.5Z" fill="#263238"/>
<path d="M108.61 294.92C109.06 294.92 109.61 295.62 110.61 296.71C112.114 298.229 113.861 299.487 115.78 300.43C119.07 302.08 125.47 304.61 128.37 305.92C130.18 306.73 130.09 308.92 128.22 310.16C126.35 311.4 121.84 312.3 116.42 311.09C113.42 310.43 109.62 307.7 107.18 307.85C104.74 308 100.18 307.96 98.4 306.72C96.62 305.48 97.32 302.84 97.83 300.57C98.39 298.09 99.08 294.22 99.9 294.39V295.25C100.96 296.85 106.41 297.5 108.73 296.32L108.61 294.92Z" fill="#263238"/>
<path d="M96.15 116.88C98.2822 116.693 100.427 117.054 102.38 117.929C104.334 118.804 106.031 120.164 107.31 121.88C110.82 126.46 120.06 145.22 120.06 145.22C120.06 145.22 140.35 143.86 141.32 142.69C142.29 141.52 141.75 139.14 141.48 137.83C141.21 136.52 140.77 133.62 140.48 132.83C139.97 131.4 142.08 131.83 143.32 133.12C144.56 134.41 145.11 137.05 145.73 137.5C146.35 137.95 151.06 132.5 153.34 129.91C155.62 127.32 156.7 125.47 158.23 126.55C159.34 127.33 158.63 128.88 156.99 131.12C156.224 132.077 155.516 133.079 154.87 134.12C154.68 134.53 155.28 134.85 155.52 135.06C155.97 135.46 156.75 136.11 156.81 136.73C156.8 137.064 156.82 137.399 156.87 137.73C157.08 138.48 158.01 138.83 158.27 139.56C158.46 140.09 158.27 140.68 158.35 141.23C158.42 141.58 158.62 141.9 158.68 142.23C158.704 142.584 158.651 142.938 158.525 143.27C158.399 143.601 158.203 143.901 157.95 144.15C156.34 146.06 154.15 146.79 152.04 147.96C150.29 148.96 148.49 149.35 146.47 150.25C144.45 151.15 119.79 157.53 116.1 155.48C112.41 153.43 98.26 131.21 98.26 131.21C92.74 122.06 96.15 116.88 96.15 116.88Z" fill="#FFA8A7"/>
<path d="M81.64 117.28C72.93 117.88 72.32 122.09 70.14 126.69C68.47 130.2 69.02 134.38 70.29 138.04L75.8 155.49C75.8 155.49 72.95 162.37 69.65 168.86C84.89 177.37 103.92 172.86 108.5 166.69C108.7 165.37 107.5 155.08 106.8 148.35C109.48 141.62 110.19 137.35 109.06 132.9C106.95 124.64 98.79 116.59 95.18 116.9L81.64 117.28Z" fill="#6576FF"/>
<path d="M67.88 82.39L70.52 86.63C70.2505 86.817 69.9459 86.9474 69.6246 87.0135C69.3033 87.0795 68.972 87.0799 68.6506 87.0145C68.3291 86.9491 68.0243 86.8193 67.7544 86.6329C67.4844 86.4465 67.2551 86.2074 67.08 85.93C66.7355 85.3495 66.6265 84.6591 66.7753 84.0007C66.9241 83.3423 67.3194 82.7659 67.88 82.39V82.39Z" fill="#263238"/>
<path d="M101.43 82.23C103.49 83.44 106.03 88.62 105.78 99.49C105.57 108.69 102.58 110.97 101.09 111.62C99.6 112.27 96.7 111.88 93.89 111.41V116.94C93.89 116.94 97.77 121.45 97.53 123.94C97.29 126.43 91.92 127.07 88.29 124.6C85.9204 122.906 83.8859 120.787 82.29 118.35V105C82.29 105 80.4 107.53 77.29 105.47C74.18 103.41 74.07 98.31 75.87 96.47C77.67 94.63 81.56 95.22 82.28 97.75C82.28 97.75 86.76 97.91 92.73 94.64C95.0521 93.399 97.0496 91.629 98.5609 89.4732C100.072 87.3173 101.055 84.836 101.43 82.23Z" fill="#FFA8A7"/>
<path d="M94.47 97.17C94.4736 97.3976 94.4102 97.6213 94.2876 97.8131C94.165 98.0049 93.9887 98.1564 93.7806 98.2488C93.5725 98.3411 93.3419 98.3701 93.1174 98.3323C92.8929 98.2945 92.6845 98.1914 92.5182 98.036C92.3518 97.8806 92.2349 97.6796 92.182 97.4582C92.129 97.2368 92.1424 97.0047 92.2204 96.7909C92.2984 96.577 92.4377 96.3908 92.6207 96.2555C92.8038 96.1202 93.0227 96.0418 93.25 96.03C93.405 96.0247 93.5595 96.0499 93.7047 96.1043C93.8499 96.1587 93.983 96.2412 94.0963 96.3471C94.2096 96.453 94.3009 96.5802 94.3651 96.7214C94.4292 96.8626 94.4648 97.015 94.47 97.17V97.17Z" fill="#263238"/>
<path d="M95.81 105L98.5 105.86C98.4551 106.043 98.3734 106.215 98.2599 106.366C98.1464 106.516 98.0034 106.642 97.8397 106.736C97.676 106.829 97.495 106.888 97.3076 106.91C97.1203 106.931 96.9306 106.914 96.75 106.86C96.3797 106.737 96.0732 106.472 95.8971 106.124C95.7211 105.775 95.6898 105.371 95.81 105V105Z" fill="#F28F8F"/>
<path d="M104 93.62L101.62 92C101.718 91.8417 101.848 91.7051 102.001 91.5985C102.153 91.4919 102.326 91.4176 102.509 91.3802C102.691 91.3427 102.88 91.3429 103.062 91.3807C103.245 91.4185 103.417 91.4931 103.57 91.6C103.889 91.8159 104.112 92.1469 104.192 92.5234C104.272 92.9 104.203 93.293 104 93.62V93.62Z" fill="#263238"/>
<path d="M103.42 96.34C103.432 96.494 103.414 96.6489 103.365 96.7956C103.317 96.9423 103.239 97.0779 103.138 97.1943C103.036 97.3107 102.913 97.4057 102.774 97.4737C102.635 97.5416 102.484 97.5812 102.33 97.59C102.091 97.6117 101.852 97.5615 101.642 97.4458C101.432 97.3301 101.262 97.1542 101.153 96.9408C101.044 96.7274 101.001 96.4862 101.03 96.2484C101.06 96.0105 101.159 95.7869 101.317 95.6063C101.474 95.4257 101.682 95.2963 101.914 95.235C102.146 95.1736 102.39 95.183 102.617 95.2619C102.843 95.3409 103.04 95.4857 103.183 95.6779C103.327 95.87 103.409 96.1006 103.42 96.34V96.34Z" fill="#263238"/>
<path d="M97.77 95.67L97.95 102.64L101.62 101.51L97.77 95.67Z" fill="#F28F8F"/>
<path d="M93.89 111.41C90.89 111.02 84.89 109.27 83.89 106.86C84.265 108.082 85.009 109.158 86.02 109.94C87.84 111.5 93.89 113.25 93.89 113.25V111.41Z" fill="#F28F8F"/>
<path opacity="0.1" d="M85.54 170.51C81.39 169.51 77.18 164.99 79.08 160.56C79.6216 159.316 80.5513 158.281 81.73 157.61C82.1647 157.363 82.6663 157.258 83.1635 157.312C83.6607 157.366 84.1284 157.575 84.5 157.91C82.5 156.6 79.07 150.23 78.61 147.91L76.26 140.07C76.0413 138.277 76.2014 136.458 76.73 134.73L70.6 127.65L69.47 128.43C68.47 131.5 69.23 134.97 70.29 138.04L75.8 155.49C75.8 155.49 72.95 162.37 69.65 168.86C74.609 171.523 80.0813 173.092 85.6979 173.461C91.3146 173.83 96.9451 172.991 102.21 171C96.6721 171.889 91.0161 171.722 85.54 170.51V170.51Z" fill="black"/>
<path d="M157.52 344.49L137.7 333.05C135.64 331.83 134.49 328.77 134.49 324.83L134.41 237.9L154.41 249.43L154.33 336.64C154.3 340.48 155.54 343.22 157.52 344.49Z" fill="#2C3782"/>
<path opacity="0.2" d="M157.52 344.49L137.7 333.05C135.64 331.83 134.49 328.77 134.49 324.83L134.41 237.9L154.41 249.43L154.33 336.64C154.3 340.48 155.54 343.22 157.52 344.49Z" fill="black"/>
<path d="M157.66 344.57L157.52 344.49C155.52 343.22 154.3 340.49 154.3 336.64L154.38 249.43L134.38 237.9L151.65 227.83L151.81 227.74L154.26 226.32L157.02 224.4L157.13 224.33L157.24 224.25C157.39 224.15 157.51 224.04 157.64 223.94L157.8 223.83L158.28 223.47L158.74 223.11C158.867 222.99 158.997 222.88 159.13 222.78L159.28 222.66L159.42 222.54C159.68 222.34 159.93 222.12 160.17 221.91L160.55 221.56L160.69 221.41C161.16 220.98 161.63 220.51 162.06 220.04L162.22 219.89C162.4 219.697 162.57 219.507 162.73 219.32C162.815 219.23 162.892 219.133 162.96 219.03C163.041 218.954 163.115 218.87 163.18 218.78V218.71L163.24 218.62L163.35 218.5L163.88 217.83C164.02 217.63 164.17 217.42 164.3 217.21L164.41 217.08V217.02C164.6 216.75 164.77 216.48 164.94 216.21C165.11 215.94 165.23 215.74 165.37 215.5L165.42 215.41C165.53 215.19 165.65 214.99 165.76 214.77L165.93 214.46C166.07 214.19 166.2 213.92 166.32 213.64L166.54 213.13C166.628 212.963 166.701 212.789 166.76 212.61C166.834 212.469 166.894 212.322 166.94 212.17C166.99 212.03 167.06 211.87 167.11 211.73C167.24 211.38 167.35 211.02 167.47 210.65C167.56 210.36 167.66 210.05 167.74 209.74C167.74 209.74 167.74 209.66 167.74 209.61C167.84 209.28 167.91 208.94 167.98 208.61V208.5C167.98 208.24 168.1 207.97 168.15 207.69C168.22 207.31 168.3 206.87 168.35 206.46V206.25C168.35 206.16 168.35 206.07 168.35 205.97C168.356 205.934 168.356 205.896 168.35 205.86C168.345 205.767 168.345 205.673 168.35 205.58C168.4 205.09 168.44 204.58 168.48 204.14V203.92V203.37C168.48 202.65 168.5 201.92 168.54 201.18V201C168.54 200.79 168.54 200.6 168.54 200.38V199.84C168.54 199.6 168.54 199.34 168.54 199.11C168.545 199.047 168.545 198.983 168.54 198.92C168.545 198.857 168.545 198.793 168.54 198.73V198.46C168.54 198.09 168.49 197.73 168.46 197.4V197.34C168.46 197.02 168.39 196.72 168.36 196.43C168.179 195.079 167.902 193.742 167.53 192.43C167.3 191.63 167.05 190.9 166.83 190.21C166.246 188.643 165.837 187.017 165.61 185.36C165.61 185.03 165.53 184.69 165.5 184.36C165.47 184.03 165.5 183.59 165.43 183.18V183C165.42 182.904 165.42 182.806 165.43 182.71C165.411 182.5 165.411 182.29 165.43 182.08C165.43 177.47 168.23 172.08 171.7 170.08C172.044 169.877 172.414 169.722 172.8 169.62C173.048 169.552 173.303 169.512 173.56 169.5C173.806 169.469 174.054 169.469 174.3 169.5C174.419 169.516 174.536 169.543 174.65 169.58C174.999 169.684 175.335 169.828 175.65 170.01L196 181.6C196.118 181.666 196.231 181.74 196.34 181.82C197.52 182.72 198.18 184.43 198.18 186.65C198.18 186.95 198.18 187.26 198.12 187.74V187.87C197.982 190.756 197.519 193.618 196.74 196.4C196.57 197.11 196.4 197.82 196.24 198.57C196.17 198.82 196.12 199.08 196.07 199.33C195.89 200.09 195.73 200.88 195.6 201.73C195.55 202 195.51 202.29 195.47 202.57L209.47 194.64L229.47 206.17V229.11C229.47 235.55 228.98 239.85 227.98 242.25C227.28 243.91 226.21 244.95 223.74 246.37C221.801 247.567 219.578 248.226 217.3 248.28C216.58 248.28 215.9 248.41 215.21 248.5L214.4 248.64C214.14 248.69 213.89 248.74 213.62 248.81C213.14 248.92 212.62 249.08 212.14 249.24L211.74 249.39C210.985 249.682 210.248 250.016 209.53 250.39C209.438 250.427 209.351 250.474 209.27 250.53H209.2L209.08 250.59C208.81 250.71 208.5 250.86 208.18 251.04C205.216 252.884 202.698 255.364 200.81 258.3C199.809 259.787 198.93 261.352 198.18 262.98C197.465 264.52 196.857 266.107 196.36 267.73L197.46 266.56C198.501 265.389 199.609 264.281 200.78 263.24C201.757 262.395 202.811 261.645 203.93 261C205.53 260.08 206.81 259.34 207.76 259.93L227.58 271.74L227.81 271.91C227.865 271.962 227.915 272.019 227.96 272.08C227.996 272.104 228.024 272.139 228.04 272.18C228.098 272.244 228.148 272.315 228.19 272.39C228.19 272.39 228.19 272.39 228.19 272.44C228.251 272.536 228.305 272.636 228.35 272.74C228.86 273.82 229.2 275.74 229.35 278.96C229.35 279.31 229.35 279.68 229.35 280.08C229.35 281.08 229.35 282.22 229.35 283.47V306.4L164.05 344.1C162.989 344.752 161.791 345.149 160.55 345.26C160.157 345.295 159.763 345.295 159.37 345.26C159.24 345.254 159.112 345.227 158.99 345.18C158.519 345.043 158.071 344.837 157.66 344.57V344.57Z" fill="#6576FF"/>
<path opacity="0.1" d="M207.75 259.93L227.55 271.74C226.61 271.14 225.32 271.9 223.72 272.82C222.602 273.462 221.551 274.212 220.58 275.06C219.401 276.092 218.289 277.197 217.25 278.37C214.962 281.023 212.329 283.357 209.42 285.31C209.03 285.59 208.57 285.88 208.14 286.13C200.89 290.32 194.99 285.86 194.99 276.19C195.026 273.311 195.488 270.454 196.36 267.71C196.73 267.32 197.08 266.93 197.44 266.56C198.481 265.389 199.589 264.281 200.76 263.24C201.733 262.395 202.784 261.645 203.9 261C205.51 260.08 206.81 259.34 207.75 259.93Z" fill="black"/>
<path opacity="0.1" d="M195.41 202.58L209.48 194.64L229.48 206.18L212.29 216.1L207.12 218.8H207.06H207.01L206.64 218.96L206.45 219.03L205.59 219.38L205.11 219.55L204.98 219.6C204.7 219.69 204.43 219.79 204.17 219.86L203.61 220.01C203.32 220.09 203.05 220.14 202.78 220.19H202.69L202.32 220.25C201.988 220.295 201.655 220.322 201.32 220.33H201C200.611 220.325 200.222 220.285 199.84 220.21L199.64 220.16C199.346 220.08 199.058 219.976 198.78 219.85C198.698 219.822 198.62 219.782 198.55 219.73V219.73C198.3 219.586 198.059 219.426 197.83 219.25H197.78L197.61 219.1C197.351 218.86 197.117 218.596 196.91 218.31L196.81 218.19C196.27 217.358 195.871 216.442 195.63 215.48L195.58 215.31C195.45 214.8 195.36 214.31 195.27 213.76V213.49C195.18 212.89 195.11 212.25 195.07 211.6C195.01 210.74 194.99 209.99 194.99 209.24C194.962 207.013 195.102 204.786 195.41 202.58V202.58Z" fill="black"/>
<path opacity="0.1" d="M154.38 249.43L134.38 237.9L151.65 227.83L151.8 227.74H151.86L154.31 226.32L157.08 224.4L157.18 224.33L157.29 224.25C157.44 224.15 157.56 224.04 157.69 223.94L157.84 223.83L158.33 223.47L158.79 223.11C158.917 222.99 159.047 222.88 159.18 222.78L159.33 222.66L159.47 222.54C159.73 222.34 159.98 222.12 160.22 221.91L160.6 221.56L160.74 221.41C161.21 220.98 161.68 220.51 162.11 220.04L162.27 219.89C162.45 219.697 162.62 219.507 162.78 219.32C162.865 219.23 162.942 219.133 163.01 219.03C163.09 218.95 163.15 218.86 163.22 218.78L163.28 218.71L163.35 218.63L163.45 218.5C163.63 218.28 163.82 218.06 163.98 217.83L164.41 217.22L164.51 217.08V217.02C164.7 216.75 164.87 216.48 165.04 216.21C165.21 215.94 165.33 215.74 165.47 215.5V215.4C165.59 215.19 165.71 214.99 165.82 214.77C165.886 214.67 165.946 214.567 166 214.46C166.12 214.18 166.26 213.91 166.38 213.64L166.6 213.13C166.68 212.97 166.75 212.8 166.83 212.62C166.91 212.44 166.95 212.33 167 212.17C167.05 212.01 167.12 211.87 167.17 211.73C167.3 211.37 167.41 211.03 167.53 210.65C167.62 210.36 167.72 210.05 167.8 209.74C167.8 209.74 167.8 209.66 167.8 209.61C167.88 209.29 167.97 208.94 168.04 208.61V208.51C168.09 208.23 168.15 207.97 168.2 207.69C168.27 207.31 168.35 206.87 168.4 206.46V206.25C168.4 206.17 168.4 206.07 168.4 205.97C168.405 205.934 168.405 205.896 168.4 205.86C168.4 205.77 168.4 205.67 168.4 205.57C168.46 205.07 168.5 204.57 168.53 204.14V203.92C168.53 203.73 168.53 203.57 168.53 203.37C168.53 202.65 168.55 201.92 168.59 201.18V201C168.59 200.79 168.59 200.6 168.59 200.38V199.84C168.59 199.6 168.59 199.34 168.59 199.1V198.92C168.595 198.857 168.595 198.793 168.59 198.73V198.46C168.59 198.09 168.54 197.73 168.51 197.4V197.33L168.42 196.43C168.239 195.079 167.962 193.742 167.59 192.43C167.37 191.62 167.12 190.89 166.89 190.21C166.306 188.643 165.897 187.017 165.67 185.36C165.67 185.03 165.59 184.69 165.56 184.36C165.53 184.03 165.56 183.6 165.5 183.18V183C165.5 182.9 165.5 182.8 165.5 182.7C165.481 182.49 165.481 182.28 165.5 182.07C165.5 177.46 168.3 172.07 171.77 170.07C172.114 169.867 172.484 169.712 172.87 169.61C173.118 169.542 173.373 169.502 173.63 169.49C173.875 169.45 174.125 169.45 174.37 169.49C174.489 169.506 174.606 169.533 174.72 169.57C175.069 169.674 175.405 169.818 175.72 170L196 181.6C195.575 181.355 195.1 181.211 194.61 181.18C194.254 181.166 193.898 181.197 193.55 181.27C192.968 181.4 192.411 181.623 191.9 181.93C191.289 182.294 190.722 182.726 190.21 183.22C188.812 184.598 187.7 186.24 186.94 188.05C186.76 188.44 186.62 188.84 186.47 189.25C186.28 189.824 186.123 190.408 186 191C185.781 191.951 185.667 192.924 185.66 193.9C185.66 194.17 185.66 194.48 185.66 194.82V194.92C185.701 196.542 185.933 198.153 186.35 199.72C186.41 199.98 186.49 200.23 186.56 200.48C186.72 200.99 186.88 201.48 187.04 201.98C187.27 202.67 187.52 203.39 187.75 204.2C187.83 204.48 187.9 204.76 187.97 205.04C188.04 205.32 188.11 205.63 188.19 205.94C188.412 206.983 188.576 208.038 188.68 209.1V209.15C188.67 209.327 188.67 209.503 188.68 209.68V210.22V210.36V210.5C188.68 210.62 188.68 210.74 188.68 210.87C188.69 210.993 188.69 211.117 188.68 211.24C188.68 211.36 188.68 211.49 188.68 211.61V212.16C188.68 212.35 188.68 212.55 188.68 212.77V212.86C188.68 213.23 188.68 213.6 188.68 213.97C188.68 214.34 188.68 214.7 188.63 215.07C188.63 215.25 188.63 215.44 188.63 215.61V215.83C188.63 216.3 188.56 216.78 188.5 217.26C188.5 217.49 188.44 217.71 188.41 217.95V218.14L188.2 219.39L188.02 220.2V220.3C188.02 220.49 187.94 220.68 187.88 220.88C187.82 221.08 187.78 221.26 187.73 221.43C187.68 221.6 187.73 221.59 187.68 221.67C187.63 221.75 187.53 222.12 187.47 222.35C187.36 222.71 187.24 223.07 187.11 223.42C186.98 223.77 186.88 224.02 186.77 224.31C186.66 224.6 186.48 225 186.33 225.31L185.92 226.15C185.84 226.3 185.76 226.47 185.67 226.62L185.42 227.09L185.36 227.19C185.298 227.314 185.227 227.434 185.15 227.55L185.08 227.67C185.037 227.748 184.987 227.822 184.93 227.89C184.76 228.17 184.59 228.44 184.41 228.71V228.77L184.31 228.91C184.243 229.015 184.17 229.115 184.09 229.21C184.026 229.314 183.956 229.414 183.88 229.51L183.69 229.76C183.585 229.909 183.471 230.053 183.35 230.19L183.25 230.32L183.14 230.47L182.91 230.74L182.84 230.82C182.84 230.88 182.74 230.95 182.68 231.01L182.42 231.3C182.35 231.39 182.26 231.48 182.17 231.58L182.02 231.73C181.585 232.211 181.125 232.669 180.64 233.1L180.5 233.25L180.11 233.6C179.88 233.82 179.63 234.03 179.37 234.24L179.23 234.35L179.16 234.42L179.09 234.48L178.7 234.8L177.7 235.52L177.55 235.64L177.15 235.94L176.93 236.09L174.16 238.01L171.71 239.43L171.63 239.49L171.47 239.57L154.38 249.43Z" fill="black"/>
<path d="M230.67 249.52L209.38 237.23L209.85 236.58L209.9 236.52L210.13 236.19C210.47 235.69 210.79 235.19 211.13 234.66L211.22 234.5C211.53 233.95 211.83 233.35 212.12 232.72C212.18 232.57 212.25 232.42 212.31 232.26V232.16C212.46 231.8 212.64 231.37 212.81 230.89C212.89 230.68 212.96 230.47 213.04 230.24V230.11C213.16 229.75 213.28 229.39 213.38 229.02C213.48 228.65 213.55 228.43 213.63 228.12C213.71 227.81 213.79 227.45 213.88 227.12C213.97 226.79 214.02 226.46 214.08 226.12C214.14 225.78 214.21 225.49 214.26 225.18V225.03C214.32 224.73 214.37 224.41 214.42 224.09C214.47 223.77 214.47 223.72 214.5 223.54V223.34C214.72 221.74 214.85 220.06 214.96 218.24V218.04L215.07 213.13V189.78L236.28 202.2V225.56L236.17 230.48V230.67C236.08 232.49 235.94 234.17 235.73 235.76V235.97C235.73 236.16 235.68 236.34 235.65 236.53C235.62 236.72 235.56 237.16 235.5 237.46V237.6C235.45 237.93 235.39 238.23 235.33 238.55C235.27 238.87 235.19 239.2 235.11 239.55C235.03 239.9 234.96 240.23 234.88 240.55C234.8 240.87 234.71 241.16 234.63 241.45C234.55 241.74 234.41 242.18 234.28 242.53V242.68C234.21 242.89 234.13 243.12 234.05 243.33C233.89 243.79 233.7 244.23 233.55 244.6L233.5 244.69L233.32 245.15C233.03 245.77 232.73 246.37 232.42 246.94L232.33 247.1C232.04 247.6 231.72 248.1 231.38 248.63C231.309 248.74 231.229 248.844 231.14 248.94V249.01L230.67 249.52Z" fill="#FF725E"/>
<path d="M215.08 290.13L215.14 270.85L214.84 271.16C215.72 270.16 216.53 269.35 217.41 268.49L217.56 268.35L217.82 268.1L218 268C219.682 266.38 221.548 264.964 223.56 263.78L223.78 263.67H223.83L223.98 263.58C224.46 263.31 224.98 263.07 225.41 262.84C225.54 262.77 225.68 262.72 225.81 262.66L225.95 262.59C226.27 262.47 226.61 262.32 226.95 262.21C227.13 262.13 227.3 262.09 227.46 262.03H227.54C227.83 261.96 228.11 261.88 228.37 261.83C228.63 261.78 228.77 261.75 228.96 261.73C229.206 261.711 229.454 261.711 229.7 261.73C229.887 261.72 230.073 261.72 230.26 261.73C230.479 261.749 230.697 261.786 230.91 261.84H231L231.41 261.94C231.619 262.013 231.82 262.107 232.01 262.22C232.224 262.324 232.428 262.448 232.62 262.59C232.852 262.755 233.069 262.939 233.27 263.14C233.384 263.26 233.491 263.387 233.59 263.52L233.66 263.62L233.72 263.69C233.824 263.822 233.92 263.958 234.01 264.1C234.137 264.292 234.251 264.492 234.35 264.7C234.45 264.89 234.54 265.06 234.62 265.25C234.7 265.44 234.82 265.73 234.92 265.99C235.02 266.25 235.05 266.37 235.11 266.57C235.17 266.77 235.28 267.13 235.36 267.43L235.48 267.93V268.01C235.55 268.34 235.63 268.68 235.69 269.01C235.69 269.1 235.69 269.2 235.69 269.3V269.42C235.91 270.83 236.07 272.42 236.18 274.29V274.37L236.29 278.83V302.51L215.08 290.13Z" fill="#FF725E"/>
<path d="M203.82 277.12L182.89 265C181.5 264.26 180.69 262.32 180.69 259.75C180.778 256.702 181.736 253.742 183.45 251.22L183.85 250.66C183.75 250.82 183.63 250.98 183.53 251.13L204.81 263.42C204.754 263.489 204.704 263.563 204.66 263.64C202.94 266.156 201.982 269.114 201.9 272.16C201.9 274.57 202.64 276.29 203.82 277.12Z" fill="#FF725E"/>
<path d="M230.67 249.52L209.38 237.23L209.85 236.58L209.9 236.52L210.13 236.19C210.47 235.69 210.79 235.19 211.13 234.66L211.22 234.5C211.53 233.95 211.83 233.35 212.12 232.72C212.18 232.57 212.25 232.42 212.31 232.26V232.16C212.46 231.8 212.64 231.37 212.81 230.89C212.89 230.68 212.96 230.47 213.04 230.24V230.11C213.16 229.75 213.28 229.39 213.38 229.02C213.48 228.65 213.55 228.43 213.63 228.12C213.71 227.81 213.79 227.45 213.88 227.12C213.97 226.79 214.02 226.46 214.08 226.12C214.14 225.78 214.21 225.49 214.26 225.18V225.03C214.32 224.73 214.37 224.41 214.42 224.09C214.47 223.77 214.47 223.72 214.5 223.54V223.34C214.72 221.74 214.85 220.06 214.96 218.24V218.04L215.07 213.13V189.78L236.28 202.2V225.56L236.17 230.48V230.67C236.08 232.49 235.94 234.17 235.73 235.76V235.97C235.73 236.16 235.68 236.34 235.65 236.53C235.62 236.72 235.56 237.16 235.5 237.46V237.6C235.45 237.93 235.39 238.23 235.33 238.55C235.27 238.87 235.19 239.2 235.11 239.55C235.03 239.9 234.96 240.23 234.88 240.55C234.8 240.87 234.71 241.16 234.63 241.45C234.55 241.74 234.41 242.18 234.28 242.53V242.68C234.21 242.89 234.13 243.12 234.05 243.33C233.89 243.79 233.7 244.23 233.55 244.6L233.5 244.69L233.32 245.15C233.03 245.77 232.73 246.37 232.42 246.94L232.33 247.1C232.04 247.6 231.72 248.1 231.38 248.63C231.309 248.74 231.229 248.844 231.14 248.94V249.01L230.67 249.52Z" fill="#263238"/>
<path d="M215.08 290.13L215.14 270.85L214.84 271.16C215.72 270.16 216.53 269.35 217.41 268.49L217.56 268.35L217.82 268.1L218 268C219.682 266.38 221.548 264.964 223.56 263.78L223.78 263.67H223.83L223.98 263.58C224.46 263.31 224.98 263.07 225.41 262.84C225.54 262.77 225.68 262.72 225.81 262.66L225.95 262.59C226.27 262.47 226.61 262.32 226.95 262.21C227.13 262.13 227.3 262.09 227.46 262.03H227.54C227.83 261.96 228.11 261.88 228.37 261.83C228.63 261.78 228.77 261.75 228.96 261.73C229.206 261.711 229.454 261.711 229.7 261.73C229.887 261.72 230.073 261.72 230.26 261.73C230.479 261.749 230.697 261.786 230.91 261.84H231L231.41 261.94C231.619 262.013 231.82 262.107 232.01 262.22C232.224 262.324 232.428 262.448 232.62 262.59C232.852 262.755 233.069 262.939 233.27 263.14C233.384 263.26 233.491 263.387 233.59 263.52L233.66 263.62L233.72 263.69C233.824 263.822 233.92 263.958 234.01 264.1C234.137 264.292 234.251 264.492 234.35 264.7C234.45 264.89 234.54 265.06 234.62 265.25C234.7 265.44 234.82 265.73 234.92 265.99C235.02 266.25 235.05 266.37 235.11 266.57C235.17 266.77 235.28 267.13 235.36 267.43L235.48 267.93V268.01C235.55 268.34 235.63 268.68 235.69 269.01C235.69 269.1 235.69 269.2 235.69 269.3V269.42C235.91 270.83 236.07 272.42 236.18 274.29V274.37L236.29 278.83V302.51L215.08 290.13Z" fill="#263238"/>
<path d="M203.82 277.12L182.89 265C181.5 264.26 180.69 262.32 180.69 259.75C180.778 256.702 181.736 253.742 183.45 251.22L183.85 250.66C183.75 250.82 183.63 250.98 183.53 251.13L204.81 263.42C204.754 263.489 204.704 263.563 204.66 263.64C202.94 266.156 201.982 269.114 201.9 272.16C201.9 274.57 202.64 276.29 203.82 277.12Z" fill="#263238"/>
<path d="M204 277.19L203.86 277.11C202.68 276.28 201.94 274.56 201.94 272.19C202.022 269.144 202.98 266.186 204.7 263.67C204.744 263.593 204.794 263.519 204.85 263.45L183.57 251.16C183.67 251.01 183.79 250.85 183.89 250.69C184.16 250.34 184.44 250.01 184.73 249.69C184.866 249.533 185.009 249.383 185.16 249.24C185.307 249.077 185.468 248.927 185.64 248.79C186.052 248.408 186.504 248.072 186.99 247.79V247.79C187.168 247.687 187.352 247.593 187.54 247.51L187.78 247.41H187.84C188.724 246.939 189.661 246.573 190.63 246.32L190.97 246.24C191.847 246.062 192.736 245.945 193.63 245.89C196.779 245.78 199.845 244.846 202.52 243.18L203.22 242.75C203.43 242.63 203.62 242.5 203.82 242.36C204.02 242.22 204.13 242.17 204.28 242.07H204.34L205.08 241.53L205.78 240.98L205.91 240.88L206.02 240.78L206.1 240.71L206.4 240.45C206.49 240.37 206.6 240.29 206.69 240.2C206.78 240.11 207.05 239.88 207.23 239.7L207.48 239.45L207.59 239.33L208.03 238.87C208.21 238.68 208.39 238.48 208.56 238.28L208.63 238.2L208.92 237.86C209.05 237.68 209.21 237.5 209.34 237.31L230.64 249.61L231.02 249.09V249.02C231.109 248.924 231.189 248.82 231.26 248.71C231.6 248.19 231.92 247.71 232.21 247.18L232.3 247.02C232.61 246.45 232.91 245.85 233.2 245.23L233.38 244.77L233.43 244.68C233.58 244.31 233.77 243.87 233.93 243.41C234.01 243.2 234.09 242.97 234.16 242.76V242.61C234.29 242.26 234.4 241.9 234.51 241.53C234.62 241.16 234.67 240.94 234.76 240.63C234.85 240.32 234.92 239.96 234.99 239.63C235.06 239.3 235.14 238.98 235.21 238.63C235.28 238.28 235.33 238.01 235.38 237.68V237.54C235.44 237.24 235.48 236.93 235.53 236.61C235.58 236.29 235.58 236.24 235.61 236.05V235.84C235.82 234.25 235.96 232.57 236.05 230.75V230.56L236.16 225.64V202.21L214.95 189.79L223.65 184.79L228.14 182.2L232.14 179.88L233.7 179C234.11 178.8 234.48 178.58 234.86 178.4C236.187 177.672 237.589 177.089 239.04 176.66L239.48 176.55C239.932 176.442 240.398 176.408 240.86 176.45C241.12 176.45 241.26 176.68 241.46 176.8L262.92 189C263.126 189.135 263.303 189.309 263.441 189.514C263.578 189.718 263.673 189.948 263.72 190.19C263.72 190.36 263.81 190.56 263.85 190.77C263.89 190.98 263.91 191.22 263.94 191.48V191.88C263.94 192.16 263.94 192.46 263.94 192.79C263.94 193.12 263.94 193.47 263.94 193.85C263.94 194.8 263.94 195.66 263.82 196.48C263.82 196.69 263.82 196.89 263.82 197.09C263.82 197.29 263.82 197.48 263.75 197.68C263.68 197.88 263.75 198.06 263.66 198.26C263.57 198.46 263.61 198.64 263.58 198.83C263.51 199.2 263.45 199.56 263.38 199.94C263.31 200.32 263.22 200.67 263.15 201.03C263.14 201.056 263.14 201.084 263.15 201.11C264.871 197.261 265.799 193.105 265.88 188.89C265.88 188.3 265.88 187.71 265.82 187.21C265.719 184.003 265.105 180.833 264 177.82C263.05 175.324 262.585 172.67 262.63 170C262.63 165.06 262.63 162.34 273.11 156.31L290.22 146.51L311.5 158.8V245.86C311.5 253.11 307.08 261.56 301.65 264.7L236.35 302.4V278.74L236.24 274.28V274.2C236.13 272.35 235.97 270.74 235.75 269.33V269.21C235.75 269.11 235.75 269.01 235.75 268.92C235.69 268.56 235.61 268.22 235.54 267.92V267.84L235.42 267.34C235.34 267.04 235.27 266.76 235.17 266.48C235.07 266.2 235.05 266.09 234.98 265.9C234.91 265.71 234.79 265.39 234.68 265.16C234.57 264.93 234.51 264.8 234.41 264.61C234.311 264.402 234.197 264.202 234.07 264.01C233.98 263.868 233.884 263.732 233.78 263.6L233.72 263.53L233.65 263.43C233.551 263.297 233.444 263.17 233.33 263.05C233.129 262.849 232.911 262.665 232.68 262.5C232.488 262.358 232.284 262.234 232.07 262.13C231.88 262.017 231.679 261.923 231.47 261.85L231.06 261.75H230.97C230.757 261.696 230.539 261.659 230.32 261.64C230.133 261.63 229.947 261.63 229.76 261.64C229.514 261.621 229.266 261.621 229.02 261.64C228.83 261.64 228.64 261.7 228.43 261.74C228.22 261.78 227.89 261.87 227.6 261.94H227.52C227.36 262 227.19 262.04 227.01 262.12C226.67 262.23 226.33 262.38 226.01 262.5L225.87 262.57C225.74 262.63 225.6 262.68 225.47 262.75C224.99 262.98 224.52 263.22 224.04 263.49L223.89 263.58H223.84L223.62 263.69C221.582 264.898 219.695 266.345 218 268L217.87 268.12L217.61 268.37L217.46 268.51C216.58 269.37 215.77 270.23 214.89 271.18C213.176 273.187 211.198 274.953 209.01 276.43V276.43C208.75 276.61 208.52 276.78 208.3 276.9C207.715 277.262 207.061 277.497 206.38 277.59C205.96 277.671 205.53 277.671 205.11 277.59C204.719 277.524 204.343 277.389 204 277.19V277.19Z" fill="#37474F"/>
<path d="M236.36 202.2L215.15 189.78L223.85 184.78L228.34 182.19L232.34 179.87L233.9 178.99C234.31 178.79 234.68 178.57 235.06 178.39C236.387 177.662 237.789 177.079 239.24 176.65L239.68 176.54C240.132 176.432 240.598 176.398 241.06 176.44C241.32 176.44 241.46 176.67 241.66 176.79L262.86 189C262.785 188.958 262.704 188.928 262.62 188.91C262.518 188.859 262.404 188.835 262.29 188.84V188.84C261.959 188.79 261.621 188.79 261.29 188.84C261.008 188.874 260.731 188.935 260.46 189.02C258.036 189.81 255.719 190.895 253.56 192.25L249.56 194.57L245.06 197.17L236.36 202.2Z" fill="black"/>
<path d="M263.8 225.93C261.8 223.93 260.8 220.56 260.8 216.49C260.79 215.906 260.813 215.322 260.87 214.74C260.87 214.74 260.87 214.74 260.87 214.67C260.87 213.67 260.97 212.74 261.08 211.67C261.08 211.37 261.15 211.08 261.19 210.78C261.26 210.16 261.35 209.55 261.45 208.98C261.55 208.41 261.63 207.92 261.73 207.41C261.79 207.14 261.84 206.88 261.89 206.63C262.13 205.52 262.38 204.41 262.67 203.22C262.86 202.47 263.03 201.75 263.19 201.03C264.9 197.206 265.821 193.078 265.9 188.89C265.9 188.3 265.9 187.72 265.83 187.22C265.735 184.007 265.124 180.829 264.02 177.81C263.074 175.317 262.609 172.667 262.65 170C262.65 165.07 262.65 162.35 273.13 156.3L290.24 146.51L311.52 158.8L294.34 168.72C283.86 174.72 283.86 177.49 283.86 182.42C283.807 185.091 284.272 187.746 285.23 190.24C286.325 193.258 286.936 196.431 287.04 199.64C287.04 200.14 287.11 200.72 287.1 201.3C287.1 210.97 281.21 222.25 273.94 226.43C270 228.72 266.31 228.53 263.8 225.93Z" fill="black"/>
<path d="M204.81 263.46L183.53 251.17C183.63 251.02 183.75 250.86 183.85 250.7C184.12 250.35 184.4 250.02 184.69 249.7C184.826 249.543 184.969 249.393 185.12 249.25C185.267 249.087 185.428 248.937 185.6 248.8C186.012 248.418 186.464 248.082 186.95 247.8V247.8C187.128 247.697 187.312 247.603 187.5 247.52L187.74 247.43H187.8C188.684 246.959 189.621 246.593 190.59 246.34L190.93 246.26C191.807 246.082 192.696 245.965 193.59 245.91C196.739 245.8 199.805 244.866 202.48 243.2L203.18 242.77C203.39 242.65 203.58 242.52 203.78 242.38C203.936 242.289 204.086 242.189 204.23 242.08V242.08H204.29L205.03 241.54L205.74 240.99L205.86 240.89L205.97 240.79L206.06 240.72L206.35 240.46C206.44 240.38 206.55 240.3 206.64 240.21C206.73 240.12 207 239.89 207.18 239.71L207.43 239.46C207.465 239.418 207.505 239.381 207.55 239.35L207.98 238.88C208.16 238.69 208.34 238.49 208.51 238.29L208.58 238.21L208.87 237.87C209 237.69 209.16 237.51 209.29 237.32L230.6 249.62L230.51 249.72C230.37 249.92 230.22 250.11 230.07 250.31C229.92 250.51 229.88 250.52 229.79 250.63L229.71 250.71C229.39 251.08 229.07 251.43 228.71 251.76L228.51 251.96C228.46 252.02 228.4 252.07 228.36 252.13L227.81 252.63L227.23 253.13L227.15 253.21L226.9 253.4C226.44 253.79 225.96 254.15 225.47 254.5C225.47 254.5 225.41 254.5 225.36 254.57C224.8 254.97 224.219 255.34 223.62 255.68L223 256L222.27 256.37C220.644 257.216 218.891 257.794 217.08 258.08L216.16 258.2H215.7L214.85 258.28C213.584 258.325 212.329 258.54 211.12 258.92C210.75 259.04 210.36 259.19 209.93 259.37C209.66 259.49 209.36 259.63 209.06 259.79L208.81 259.89C208.621 259.971 208.437 260.065 208.26 260.17C207.772 260.462 207.31 260.797 206.88 261.17C206.726 261.299 206.579 261.436 206.44 261.58C206.29 261.72 206.14 261.88 206 262.04C205.812 262.227 205.638 262.427 205.48 262.64C205.369 262.767 205.265 262.901 205.17 263.04C205 263.23 204.89 263.34 204.81 263.46Z" fill="black"/>
<path d="M269.84 217.59L248.51 205.27C248.41 205.219 248.313 205.163 248.22 205.1C247.03 204.2 246.48 202.33 246.48 200.1C246.458 199.74 246.458 199.38 246.48 199.02V198.89C246.632 196.005 247.098 193.144 247.87 190.36C248.21 188.93 248.57 187.36 248.87 185.75L253.49 183.08L253.67 182.98L253.78 182.92L257.42 180.97L257.52 180.92C258.664 180.35 259.847 179.862 261.06 179.46H261.2L261.67 179.31C261.856 179.249 262.047 179.203 262.24 179.17H262.35C262.57 179.11 262.8 179.05 263.03 179.01L263.63 178.93C263.86 178.93 264.1 178.93 264.33 178.93C264.56 178.93 264.69 178.93 264.86 178.93C265.099 178.934 265.336 178.961 265.57 179.01H265.66L266 179.07C266.276 179.144 266.547 179.238 266.81 179.35L267.05 179.45C267.765 179.83 268.378 180.375 268.84 181.04C268.881 181.097 268.918 181.157 268.95 181.22C269.169 181.534 269.356 181.869 269.51 182.22C269.51 182.29 269.58 182.37 269.61 182.43V182.5C269.76 182.87 269.89 183.27 270.02 183.69L270.1 184.01C270.233 184.5 270.333 184.997 270.4 185.5L270.45 185.73C270.644 187.152 270.734 188.585 270.72 190.02C270.679 194.373 270.074 198.702 268.92 202.9C268.156 205.689 267.693 208.552 267.54 211.44V211.56C267.54 212.02 267.49 212.35 267.49 212.65C267.49 214.88 268.14 216.59 269.32 217.49L269.84 217.59Z" fill="#2C3782"/>
<path d="M236.35 193L215.15 180.59V157.65C215.079 154.285 215.293 150.919 215.79 147.59C216.53 143.5 217.65 142.26 220.87 140.4C222.816 139.202 225.046 138.543 227.33 138.49C228.08 138.43 228.79 138.36 229.51 138.25L230.08 138.15L231.08 137.94C231.49 137.82 231.93 137.7 232.39 137.54C232.581 137.485 232.768 137.418 232.95 137.34C233.683 137.073 234.397 136.759 235.09 136.4L235.18 136.35C235.612 136.176 236.03 135.968 236.43 135.73C240.37 133.46 244.07 128.99 246.57 123.49C246.74 123.13 246.88 122.77 247.03 122.42L246.5 122.95C247.18 122.28 247.84 121.56 248.5 120.82C250.792 118.181 253.421 115.854 256.32 113.9C256.729 113.592 257.16 113.315 257.61 113.07C264.86 108.87 270.77 113.34 270.77 123C270.686 127.466 269.664 131.865 267.77 135.91C265.26 141.42 261.56 145.91 257.62 148.16C257.217 148.391 256.8 148.595 256.37 148.77C256.341 148.779 256.309 148.779 256.28 148.77C255.587 149.145 254.872 149.479 254.14 149.77L253.58 149.97C253.15 150.119 252.713 150.246 252.27 150.35C251.92 150.44 251.6 150.51 251.27 150.57L250.69 150.67C249.98 150.77 249.26 150.86 248.51 150.91C246.228 150.957 244 151.617 242.06 152.82C238.84 154.67 237.71 155.91 236.98 160C236.475 163.335 236.254 166.707 236.32 170.08V185.18L236.35 193Z" fill="#2C3782"/>
<path d="M238.3 127.49L217 115.17C215.75 114.41 215.18 111.25 215.18 103.31L215.09 80.51L236.37 92.8V115.72C236.37 123.72 237.04 126.77 238.31 127.48L238.3 127.49Z" fill="#2C3782"/>
<path opacity="0.2" d="M269.84 217.59L248.51 205.27C248.41 205.219 248.313 205.163 248.22 205.1C247.03 204.2 246.48 202.33 246.48 200.1C246.458 199.74 246.458 199.38 246.48 199.02V198.89C246.632 196.005 247.098 193.144 247.87 190.36C248.21 188.93 248.57 187.36 248.87 185.75L253.49 183.08L253.67 182.98L253.78 182.92L257.42 180.97L257.52 180.92C258.664 180.35 259.847 179.862 261.06 179.46H261.2L261.67 179.31C261.856 179.249 262.047 179.203 262.24 179.17H262.35C262.57 179.11 262.8 179.05 263.03 179.01L263.63 178.93C263.86 178.93 264.1 178.93 264.33 178.93C264.56 178.93 264.69 178.93 264.86 178.93C265.099 178.934 265.336 178.961 265.57 179.01H265.66L266 179.07C266.276 179.144 266.547 179.238 266.81 179.35L267.05 179.45C267.765 179.83 268.378 180.375 268.84 181.04C268.881 181.097 268.918 181.157 268.95 181.22C269.169 181.534 269.356 181.869 269.51 182.22C269.51 182.29 269.58 182.37 269.61 182.43V182.5C269.76 182.87 269.89 183.27 270.02 183.69L270.1 184.01C270.233 184.5 270.333 184.997 270.4 185.5L270.45 185.73C270.644 187.152 270.734 188.585 270.72 190.02C270.679 194.373 270.074 198.702 268.92 202.9C268.156 205.689 267.693 208.552 267.54 211.44V211.56C267.54 212.02 267.49 212.35 267.49 212.65C267.49 214.88 268.14 216.59 269.32 217.49L269.84 217.59Z" fill="black"/>
<path opacity="0.2" d="M236.35 193L215.15 180.59V157.65C215.079 154.285 215.293 150.919 215.79 147.59C216.53 143.5 217.65 142.26 220.87 140.4C222.816 139.202 225.046 138.543 227.33 138.49C228.08 138.43 228.79 138.36 229.51 138.25L230.08 138.15L231.08 137.94C231.49 137.82 231.93 137.7 232.39 137.54C232.581 137.485 232.768 137.418 232.95 137.34C233.683 137.073 234.397 136.759 235.09 136.4L235.18 136.35C235.612 136.176 236.03 135.968 236.43 135.73C240.37 133.46 244.07 128.99 246.57 123.49C246.74 123.13 246.88 122.77 247.03 122.42L246.5 122.95C247.18 122.28 247.84 121.56 248.5 120.82C250.792 118.181 253.421 115.854 256.32 113.9C256.729 113.592 257.16 113.315 257.61 113.07C264.86 108.87 270.77 113.34 270.77 123C270.686 127.466 269.664 131.865 267.77 135.91C265.26 141.42 261.56 145.91 257.62 148.16C257.217 148.391 256.8 148.595 256.37 148.77C256.341 148.779 256.309 148.779 256.28 148.77C255.587 149.145 254.872 149.479 254.14 149.77L253.58 149.97C253.15 150.119 252.713 150.246 252.27 150.35C251.92 150.44 251.6 150.51 251.27 150.57L250.69 150.67C249.98 150.77 249.26 150.86 248.51 150.91C246.228 150.957 244 151.617 242.06 152.82C238.84 154.67 237.71 155.91 236.98 160C236.475 163.335 236.254 166.707 236.32 170.08V185.18L236.35 193Z" fill="black"/>
<path opacity="0.2" d="M238.3 127.49L217 115.17C215.75 114.41 215.18 111.25 215.18 103.31L215.09 80.51L236.37 92.8V115.72C236.37 123.72 237.04 126.77 238.31 127.48L238.3 127.49Z" fill="black"/>
<path d="M270 217.69L269.84 217.6L269.5 217.38C268.32 216.48 267.67 214.77 267.67 212.54C267.67 212.24 267.67 211.91 267.72 211.45V211.33C267.873 208.442 268.336 205.579 269.1 202.79C270.254 198.592 270.859 194.263 270.9 189.91C270.914 188.475 270.824 187.042 270.63 185.62L270.58 185.39C270.513 184.887 270.413 184.39 270.28 183.9L270.2 183.58C270.07 183.16 269.94 182.76 269.79 182.39V182.32C269.79 182.26 269.73 182.18 269.69 182.11C269.536 181.759 269.349 181.424 269.13 181.11C269.098 181.047 269.061 180.987 269.02 180.93C268.558 180.265 267.945 179.72 267.23 179.34L266.99 179.24C266.727 179.128 266.456 179.034 266.18 178.96L265.84 178.9H265.75C265.516 178.851 265.279 178.824 265.04 178.82C264.87 178.82 264.69 178.82 264.51 178.82C264.33 178.82 264.04 178.82 263.81 178.82L263.21 178.9C262.98 178.9 262.75 179 262.53 179.06H262.42C262.227 179.093 262.036 179.139 261.85 179.2L261.38 179.35H261.24C260.027 179.752 258.844 180.24 257.7 180.81L257.6 180.86L253.96 182.81L253.85 182.87L253.67 182.97L249.05 185.64L236.35 193V185.17V170.07C236.281 166.701 236.499 163.332 237 160C237.73 155.91 238.86 154.67 242.08 152.82C244.02 151.617 246.248 150.957 248.53 150.91C249.28 150.91 250 150.77 250.71 150.67L251.29 150.57C251.62 150.51 251.94 150.44 252.29 150.35C252.733 150.246 253.17 150.119 253.6 149.97L254.16 149.77C254.892 149.479 255.607 149.145 256.3 148.77C256.329 148.779 256.361 148.779 256.39 148.77C256.82 148.595 257.237 148.391 257.64 148.16C261.58 145.87 265.28 141.42 267.79 135.91C269.684 131.865 270.706 127.466 270.79 123C270.79 113.34 264.88 108.87 257.63 113.07C257.18 113.315 256.749 113.592 256.34 113.9C253.441 115.854 250.812 118.181 248.52 120.82C247.83 121.56 247.17 122.28 246.52 122.95C245.463 124.009 244.304 124.96 243.06 125.79L242.61 126.07L242.09 126.38C241.49 126.72 240.95 127.04 240.44 127.27L239.95 127.47C239.803 127.534 239.648 127.577 239.49 127.6C239.351 127.647 239.206 127.67 239.06 127.67C238.794 127.679 238.531 127.613 238.3 127.48C237.03 126.77 236.36 123.74 236.36 115.72V92.8L215.08 80.51L280.46 42.69C280.7 42.56 280.92 42.43 281.16 42.32C281.373 42.2099 281.593 42.1163 281.82 42.04L282.48 41.83C282.685 41.7612 282.896 41.711 283.11 41.68C283.378 41.6308 283.648 41.6008 283.92 41.59C285.017 41.5409 286.103 41.8307 287.03 42.42L308.03 54.53C308.679 54.8866 309.248 55.3735 309.7 55.96C309.856 56.1613 309.999 56.3716 310.13 56.59C310.225 56.7352 310.312 56.8855 310.39 57.04C310.55 57.36 310.7 57.69 310.84 58.04C310.89 58.22 310.96 58.4 311.01 58.59C311.386 59.8892 311.565 61.2377 311.54 62.59V149.65L294.35 159.57L294.04 159.77L293.83 159.89H293.78L290.37 162C289.011 162.892 287.705 163.864 286.46 164.91L286.37 164.98L286.17 165.15L285.28 165.95L285.21 166.03C285.08 166.14 284.95 166.27 284.83 166.39C284.71 166.51 284.3 166.91 284.05 167.18C283.8 167.45 283.71 167.53 283.56 167.71C283.41 167.89 283.07 168.25 282.84 168.53L282.37 169.12L281.71 170L281.35 170.53L281.27 170.67L281.18 170.81C281.01 171.06 280.83 171.32 280.67 171.59C280.51 171.86 280.45 171.98 280.35 172.18L280.27 172.34C279.96 172.9 279.66 173.49 279.39 174.09L279.33 174.24C279.21 174.49 279.1 174.75 279 175C278.91 175.26 278.81 175.52 278.72 175.79L278.64 175.99L278.34 176.91C278.24 177.24 278.15 177.57 278.06 177.91C277.97 178.25 277.89 178.59 277.81 178.91C277.73 179.23 277.67 179.58 277.61 179.91C277.55 180.24 277.48 180.64 277.43 181.01V181.07C277.43 181.38 277.33 181.69 277.3 182C277.27 182.31 277.22 182.78 277.18 183.22V183.46C277.18 183.69 277.18 183.92 277.13 184.15C277.13 184.64 277.13 185.15 277.13 185.87V186C277.13 186.12 277.13 186.25 277.13 186.37C277.056 190.054 277.667 193.719 278.93 197.18C279.768 199.423 280.234 201.787 280.31 204.18V204.29C280.31 204.61 280.36 204.94 280.37 205.21C280.37 209.82 277.55 215.21 274.09 217.21C273.459 217.596 272.754 217.845 272.02 217.94C271.87 217.955 271.72 217.955 271.57 217.94H271.5C271.407 217.955 271.313 217.955 271.22 217.94C271.137 217.955 271.053 217.955 270.97 217.94L270.77 217.89L270.53 217.82C270.466 217.808 270.405 217.785 270.35 217.75C270.23 217.765 270.108 217.744 270 217.69V217.69Z" fill="#6576FF"/>
<path opacity="0.3" d="M236.35 92.8L215.07 80.51L280.45 42.69C280.69 42.56 280.91 42.43 281.15 42.32C281.362 42.2099 281.583 42.1163 281.81 42.04V42.04L282.47 41.83C282.675 41.7612 282.886 41.711 283.1 41.68C283.368 41.6308 283.638 41.6008 283.91 41.59C285.007 41.5409 286.093 41.8307 287.02 42.42L307.78 54.42C307.599 54.3252 307.408 54.2514 307.21 54.2C307.165 54.1878 307.122 54.171 307.08 54.15C306.898 54.0878 306.711 54.0442 306.52 54.02H306.33C306.207 54.0042 306.083 54.0042 305.96 54.02V54.02H305.6C305.57 54.015 305.54 54.015 305.51 54.02C305.337 54.005 305.163 54.005 304.99 54.02L304.59 54.08C304.318 54.1135 304.05 54.1738 303.79 54.26L303.39 54.38L302.61 54.69C302.31 54.83 302.01 54.99 301.69 55.17L236.35 92.8Z" fill="white"/>
<path d="M202.89 210.17L181.68 197.73C180.85 197.24 180.59 195.87 180.59 192.91C180.594 190.471 180.886 188.041 181.46 185.67C180.821 187.143 180.28 188.656 179.84 190.2C181.84 182.85 186.51 175.86 191.84 172.76C195.35 170.76 198.65 170.65 201.14 172.53C203.63 174.41 205 178 205 182.7C205 183.15 205 183.59 204.95 183.99V184.21C204.95 184.32 204.95 184.43 204.95 184.54C204.95 185.54 204.83 186.54 204.72 187.59C204.71 187.758 204.69 187.925 204.66 188.09V188.24C204.57 188.95 204.48 189.64 204.37 190.33C204.29 190.74 204.21 191.15 204.14 191.55C204.07 191.95 203.98 192.36 203.9 192.76C203.68 193.76 203.43 194.85 203.17 195.94C202.303 198.996 201.842 202.153 201.8 205.33C201.79 208.31 202 209.68 202.89 210.17Z" fill="#FF725E"/>
<path d="M154.3 240.39L133 228.11L133.08 140.9C133.15 137.429 133.98 134.016 135.51 130.9L156.77 143.17C155.206 146.33 154.356 149.795 154.28 153.32L154.3 240.39Z" fill="#FF725E"/>
<path d="M202.89 210.17L181.68 197.73C180.85 197.24 180.59 195.87 180.59 192.91C180.594 190.471 180.886 188.041 181.46 185.67V185.67C183.86 180.1 187.63 175.21 191.88 172.76C195.39 170.76 198.69 170.65 201.18 172.53C203.67 174.41 205 178 205 182.7C205 183.15 205 183.59 204.95 183.99V184.21C204.95 184.32 204.95 184.43 204.95 184.54C204.95 185.54 204.83 186.54 204.72 187.59C204.71 187.758 204.69 187.925 204.66 188.09V188.24C204.57 188.95 204.48 189.64 204.37 190.33C204.29 190.74 204.21 191.15 204.14 191.55C204.07 191.95 203.98 192.36 203.9 192.76C203.68 193.76 203.43 194.85 203.17 195.94C202.303 198.996 201.842 202.153 201.8 205.33C201.79 208.31 202 209.68 202.89 210.17Z" fill="#263238"/>
<path d="M154.3 240.39L133 228.11L133.08 140.9C133.15 137.429 133.98 134.016 135.51 130.9L156.77 143.17C155.206 146.33 154.356 149.795 154.28 153.32L154.3 240.39Z" fill="#263238"/>
<path d="M154.3 240.39V153.31C154.376 149.785 155.226 146.32 156.79 143.16L135.53 130.89C135.59 130.76 135.64 130.64 135.7 130.52C135.788 130.321 135.888 130.127 136 129.94C136.14 129.67 136.28 129.41 136.43 129.15C136.58 128.89 136.79 128.52 136.99 128.23L137.1 128.02C137.127 127.978 137.157 127.938 137.19 127.9C137.36 127.62 137.56 127.33 137.76 127.05L137.94 126.8C138.042 126.642 138.156 126.491 138.28 126.35C138.388 126.197 138.505 126.05 138.63 125.91L138.73 125.78C138.91 125.55 139.1 125.32 139.3 125.11L139.54 124.86C139.591 124.795 139.648 124.735 139.71 124.68L139.82 124.55L140.03 124.36L140.4 124C140.432 123.965 140.469 123.934 140.51 123.91C140.62 123.81 140.72 123.7 140.82 123.62L140.93 123.53H140.98L141.25 123.33C141.35 123.24 141.46 123.17 141.56 123.09C141.66 123.01 141.76 122.93 141.86 122.85C141.979 122.76 142.102 122.676 142.23 122.6C142.448 122.432 142.678 122.281 142.92 122.15L208.15 84.59L229.43 96.88V116.04L229.74 115.72C231.455 113.71 233.437 111.944 235.63 110.47V110.47H235.71C235.915 110.315 236.129 110.172 236.35 110.04C236.946 109.627 237.648 109.394 238.373 109.367C239.098 109.341 239.815 109.522 240.44 109.89L261.65 122.14C261.765 122.197 261.872 122.267 261.97 122.35L262.15 122.49C262.888 123.179 263.391 124.081 263.59 125.07C263.65 125.32 263.7 125.59 263.74 125.86C263.798 126.304 263.825 126.752 263.82 127.2C263.766 129.628 263.139 132.01 261.99 134.15C261.001 136.192 259.468 137.922 257.56 139.15C257.304 139.298 257.04 139.431 256.77 139.55H256.72C254.929 140.493 252.944 141.009 250.92 141.06C247.769 141.176 244.703 142.117 242.03 143.79C240.85 144.464 239.729 145.237 238.68 146.1L238.56 146.19C238.07 146.6 237.56 147.02 237.18 147.44L237.12 147.51C236.143 148.476 235.262 149.534 234.49 150.67V150.67C234.16 151.16 233.84 151.67 233.49 152.24L233.34 152.51V152.59C233.08 153.05 232.84 153.59 232.61 154.03V154.1C232.556 154.21 232.509 154.324 232.47 154.44C232.24 154.95 232.03 155.44 231.83 156.03L231.73 156.29C231.5 156.93 231.29 157.59 231.12 158.21L231.07 158.42C230.92 158.97 230.78 159.54 230.66 160.12C230.66 160.28 230.58 160.46 230.55 160.63V160.77C230.47 161.2 230.4 161.62 230.32 162.06C230.32 162.31 230.23 162.58 230.2 162.84C230.17 163.1 230.08 163.65 230.03 164.07V164.27C230.03 164.47 229.98 164.68 229.97 164.9C229.97 165.32 229.88 165.76 229.85 166.19V166.42C229.85 166.58 229.85 166.74 229.8 166.9V167.05L229.57 174.05V197.05L223.57 200.54L217.9 203.81L212.41 206.98C208.6 209.19 205.94 210.31 204.32 210.43C204.194 210.44 204.066 210.44 203.94 210.43C203.63 210.427 203.326 210.351 203.05 210.21C202.2 209.72 201.95 208.35 201.95 205.37C201.992 202.193 202.453 199.036 203.32 195.98C203.58 194.89 203.83 193.83 204.05 192.8C204.13 192.4 204.22 192 204.29 191.59C204.36 191.18 204.44 190.78 204.52 190.37C204.63 189.68 204.72 188.99 204.81 188.28V188.13C204.84 187.965 204.86 187.798 204.87 187.63C204.98 186.58 205.06 185.63 205.1 184.58C205.1 184.47 205.1 184.36 205.1 184.25V184C205.1 183.6 205.16 183.16 205.15 182.71C205.15 178.02 203.79 174.41 201.3 172.53C198.81 170.65 195.51 170.72 192 172.76C187.75 175.21 184 180.1 181.58 185.67C181.086 186.77 180.658 187.899 180.3 189.05C180.18 189.43 180.06 189.82 179.96 190.2C179.86 190.58 179.72 191.11 179.61 191.57C179.578 191.647 179.558 191.728 179.55 191.81C179.45 192.25 179.36 192.7 179.29 193.14C179.118 194.09 178.995 195.048 178.92 196.01C178.9 196.296 178.9 196.584 178.92 196.87C178.92 197.21 178.92 197.55 178.92 197.87C178.92 198.46 178.92 199.08 178.99 199.56C179.087 202.763 179.698 205.93 180.8 208.94C181.405 210.552 181.818 212.231 182.03 213.94V214.14V214.2V214.28C182.025 214.35 182.025 214.42 182.03 214.49C182.08 215.23 182.12 215.96 182.12 216.72C182.12 221.65 182.12 224.37 171.65 230.42L154.3 240.39Z" fill="#37474F"/>
<path d="M240.55 109.68L261.76 121.93C261.11 121.607 260.383 121.467 259.659 121.525C258.935 121.583 258.241 121.837 257.65 122.26C257.47 122.36 257.24 122.52 257.01 122.68L256.94 122.75H256.89C254.695 124.221 252.713 125.988 251 128C248.452 130.96 245.452 133.498 242.11 135.52L241.69 135.75L241.53 135.83L241.41 135.89C241.09 136.06 240.78 136.24 240.49 136.38L239.93 136.62L239.74 136.69L239.63 136.75L238.93 137.01C238.722 137.092 238.508 137.159 238.29 137.21H238.21L237.5 137.38C237.26 137.44 237.04 137.45 236.81 137.49H236.15C235.94 137.49 235.73 137.49 235.53 137.49C235.33 137.49 235.14 137.42 234.95 137.39C234.759 137.353 234.572 137.3 234.39 137.23C234.213 137.17 234.042 137.093 233.88 137H233.79C233.642 136.928 233.499 136.848 233.36 136.76C233.225 136.664 233.098 136.557 232.98 136.44L232.9 136.38L232.82 136.3C232.71 136.21 232.59 136.1 232.48 135.99C232.352 135.84 232.232 135.683 232.12 135.52L232.06 135.43C231.838 135.11 231.638 134.776 231.46 134.43L231.4 134.3C231.313 134.148 231.237 133.991 231.17 133.83C231.1 133.66 231.02 133.45 230.95 133.25V133.11V132.99C230.89 132.81 230.82 132.65 230.76 132.45C230.7 132.25 230.62 131.91 230.55 131.63C230.48 131.35 230.42 131.15 230.38 130.9C230.34 130.65 230.26 130.3 230.21 129.98C230.16 129.66 230.12 129.46 230.08 129.2C230.04 128.94 230 128.53 229.96 128.2C229.92 127.87 229.9 127.65 229.87 127.37C229.84 127.09 229.8 126.64 229.78 126.25C229.78 126.05 229.78 125.81 229.78 125.58V125.28C229.78 124.93 229.78 124.56 229.72 124.18V124.03L229.65 120.03V115.89C229.74 115.78 229.85 115.68 229.94 115.58C231.655 113.57 233.637 111.804 235.83 110.33V110.33H235.88L235.96 110.27C236.161 110.116 236.371 109.976 236.59 109.85C237.172 109.464 237.849 109.245 238.546 109.215C239.244 109.185 239.937 109.346 240.55 109.68V109.68Z" fill="black"/>
<path d="M156.8 143.17L135.52 130.88C135.58 130.75 135.63 130.64 135.7 130.52C135.788 130.321 135.888 130.127 136 129.94C136.14 129.67 136.28 129.41 136.43 129.15C136.58 128.89 136.79 128.52 136.99 128.23C137.047 128.114 137.114 128.004 137.19 127.9C137.36 127.62 137.56 127.33 137.76 127.05L137.94 126.8C138.042 126.642 138.156 126.491 138.28 126.35C138.419 126.151 138.569 125.961 138.73 125.78C138.91 125.55 139.1 125.32 139.3 125.11L139.54 124.86C139.591 124.795 139.648 124.735 139.71 124.68L140.03 124.36L140.4 124C140.432 123.965 140.469 123.934 140.51 123.91C140.64 123.773 140.781 123.646 140.93 123.53H140.98L141.25 123.33C141.445 123.159 141.648 122.999 141.86 122.85C141.979 122.76 142.102 122.676 142.23 122.6C142.448 122.432 142.678 122.281 142.92 122.15L208.14 84.58L229.42 96.87L200.75 113.42L164.11 134.59C163.83 134.75 163.56 134.92 163.29 135.1C163.02 135.28 162.79 135.46 162.56 135.66C162.425 135.749 162.298 135.849 162.18 135.96C161.94 136.15 161.7 136.38 161.47 136.6C161.24 136.82 160.91 137.15 160.64 137.43C160.039 138.086 159.481 138.781 158.97 139.51C158.77 139.79 158.57 140.07 158.38 140.37C157.795 141.269 157.267 142.204 156.8 143.17V143.17Z" fill="#455A64"/>
<path d="M125.45 164.72C126.492 164.78 127.52 164.456 128.34 163.81C130.55 162.1 132.2 162.24 134.57 161.22C136.43 160.41 137.18 159.42 137.57 159.76C137.958 160.19 138.168 160.751 138.159 161.33C138.149 161.909 137.921 162.463 137.52 162.88C136.805 163.712 135.977 164.439 135.06 165.04C137.258 164.904 139.426 164.459 141.5 163.72C146.5 162.02 148.87 162.72 146.6 169.07C145.18 173.07 141.6 175.27 131.79 175.07C128.165 174.826 124.56 174.338 121 173.61C111.29 171.7 91.74 168.77 88.33 164.18C78.68 151.18 69.83 140.46 68.61 130.76C67.61 122.62 72.61 118.07 77.24 118.07C79.87 120.84 81.47 124.14 83.89 131.91C83.89 131.91 96.45 154.4 97.72 156.04C100.88 157.77 123.39 164.39 125.45 164.72Z" fill="#FFA8A7"/>
<path d="M306.82 81.4C308.51 82.4 310.32 82.83 312.57 84.47C314.024 85.7187 315.761 86.594 317.63 87.02C320.04 87.61 339.01 81.2 342.52 78.49C349.67 72.98 355.84 62.61 359.28 58.68C362.11 55.44 365.28 50.56 368.81 50.54C374.58 52.28 373.28 60.86 368.45 68.54C364.45 74.93 356.87 83 348.29 88.63C344.13 91.36 324.96 96.31 318.59 96.73C316.66 96.85 315.23 97.29 311.59 97.81C310.077 98.1169 308.527 98.2011 306.99 98.06C305.103 97.7664 303.268 97.204 301.54 96.39C299.347 95.3674 297.469 93.7755 296.1 91.78C295.353 90.6828 294.874 89.4259 294.7 88.11C294.525 86.7845 294.83 85.4402 295.56 84.32C295.697 84.0862 295.894 83.8929 296.13 83.76C296.595 83.6086 297.101 83.6445 297.54 83.86C300.1 84.75 302.72 86.09 305.35 86.7C307.57 87.21 309.21 87.27 308.99 86.87C308.77 86.47 307.45 86.25 305.94 84.97C304.43 83.69 303.81 81.67 304.56 80.91C305.31 80.15 305.14 80.36 306.82 81.4Z" fill="#FFA8A7"/>
<path d="M369.18 48.51C373.44 50.6 375.18 53.78 373.28 60.86C371.58 67.22 365.06 78.07 359.93 83.38C359.93 83.38 351.15 79.22 346.48 73.81C351.1 66.74 353.33 62.58 357.67 56.59C362.01 50.6 366.58 47.8 369.18 48.51Z" fill="#E0E0E0"/>
</svg>
